<svg id="Layer_1" data-name="Layer 1" xmlns="http://www.w3.org/2000/svg" viewBox="0 0 128.584 220.496"><defs><style>.cls-1{fill:#7eb068;}.cls-2{fill:#fbac21;}.cls-3{fill:#f5dd8f;}.cls-4{fill:#9f248f;}.cls-5{fill:#da344d;}.cls-6{fill:#f2ddec;}.cls-7{fill:#de6b48;}.cls-8{fill:#811427;}.cls-9{fill:#f7d166;}</style></defs><title>burger</title><g id="Layer_6" data-name="Layer 6"><g id="Layer_4" data-name="Layer 4"><g id="Layer_5" data-name="Layer 5"><path class="cls-1" d="M210.33,151.48a1.55,1.55,0,0,1,.01.8,3.835,3.835,0,0,1-1.93,2.62,3.077,3.077,0,0,0-.84.77,0.633,0.633,0,0,0,.1.59,3.364,3.364,0,0,0,.99.57c0.47,0.17.65,0.54,0.29,0.88a2.545,2.545,0,0,1-1.1.68,1.322,1.322,0,0,0-1.13,1.37c-0.05.62-.13,1.23-0.18,1.85-0.03.42-.23,0.47-0.58,0.31-0.76-.34-1.52-0.66-2.29-0.97a3.2,3.2,0,0,0-.69-0.11c-0.02.24-.05,0.49-0.05,0.73,0.01,0.42.09,0.85,0.06,1.27a0.57,0.57,0,0,1-.83.58c-0.65-.19-1.28-0.41-1.91-0.65a1.042,1.042,0,0,0-1.2.07,1.925,1.925,0,0,0-.02.97,0.127,0.127,0,0,0,.01.06,2.563,2.563,0,0,1-1.41,2.76c-0.85-.53-1.58-0.97-2.29-1.43s-1.41-.96-2.25-1.53v2.6a21.367,21.367,0,0,1-2.23-.64,18.182,18.182,0,0,1-1.93-1.07,1.92,1.92,0,0,0-.15.14c0.08,0.37.17,0.74,0.25,1.11a0.838,0.838,0,0,1-.69,1.17,1.02,1.02,0,0,1-1.4-.88c-0.09-.28-0.19-0.64-0.57-0.43a10.713,10.713,0,0,0-1.73,1.09,6,6,0,0,0-.88,1.04c-0.41-.22-0.82-0.44-1.23-0.65a7.828,7.828,0,0,1-2.68-1.51,1.418,1.418,0,0,0-.58-0.19,2.017,2.017,0,0,0,.03.7,5.491,5.491,0,0,0,.55,1.08,0.535,0.535,0,0,1-.16.84,0.7,0.7,0,0,1-.94-0.15,5,5,0,0,0-.41-0.39c-1.19-.62-2.39-1.23-3.59-1.84-0.07.04-.14,0.09-0.21,0.13a2.039,2.039,0,0,0,.01.7,1.789,1.789,0,0,1-1.49,2.51,4.1,4.1,0,0,0-1.76-2.93,1.035,1.035,0,0,0-.88-0.1c-0.56.21-.64,0.65-0.34,1.36,0.19,0.46.39,0.91,0.62,1.46-0.93-.05-1.72-0.09-2.51-0.12a5.156,5.156,0,0,1-2.79-.84,1.014,1.014,0,0,0-.92-0.12,1.405,1.405,0,0,0-.27.96,12.109,12.109,0,0,0,.16,1.39c-1.26-.4-2.4-0.76-3.53-1.13-0.48-.16-0.95-0.38-1.43-0.56a0.683,0.683,0,0,0-.41-0.07,0.579,0.579,0,0,0-.1.46,0.974,0.974,0,0,0,.32.48c0.53,0.38.25,0.73-.02,1.06a0.774,0.774,0,0,1-1.18.17,3.408,3.408,0,0,0-.76-0.39c-1.11-.37-2.22-0.72-3.35-1.05a0.687,0.687,0,0,0-.54.16,3.344,3.344,0,0,0,.07,2.05c0.27,0.54.5,1.11,0.78,1.73a2.555,2.555,0,0,1-2.08-1.25c-0.52-.63-0.97-1.32-1.51-1.92-0.75-.84-1.27-0.81-1.96.01-0.12.15-.24,0.31-0.35,0.47-0.32-.43-0.66-0.84-0.94-1.27a1.962,1.962,0,0,0-1.76-.92,15.811,15.811,0,0,0-1.68.12,2.274,2.274,0,0,0-.55.2,2.4,2.4,0,0,0,.24.54c0.35,0.47.74,0.9,1.12,1.35a1.525,1.525,0,0,1-2.02-.01c-0.64-.44-1.24-0.94-1.89-1.36a7.089,7.089,0,0,0-1.5-.77,0.977,0.977,0,0,0-.74.23,1.754,1.754,0,0,0-.38.7,1.561,1.561,0,0,1-1.98.85c-0.66-.21-0.12-0.76-0.16-1.15a0.97,0.97,0,0,1,.01-0.17,5.715,5.715,0,0,0-.94-2.59c-0.17-.34-0.44-0.17-0.67.03-0.48.43-.97,0.85-1.46,1.27a6.719,6.719,0,0,0-3.92-2.68,1.056,1.056,0,0,0-.45.07,1.123,1.123,0,0,0,.1.47,3.848,3.848,0,0,0,.77.79,0.66,0.66,0,0,1,.19.93,0.806,0.806,0,0,1-.69.16c-1.2-.28-2.37-0.7-3.58-0.89-1.03-.16-2.1-0.5-3.13.21-0.34.24-.6,0.41-0.48,0.78a4.715,4.715,0,0,1-.14,2.27,1.226,1.226,0,0,1-1.25,1.19,2.643,2.643,0,0,1-.15-0.72,2.473,2.473,0,0,0-1.79-2.76,6.571,6.571,0,0,0-.99-0.27c-0.86-.23-1.02-0.15-1.32.68a1.35,1.35,0,0,1-1.27.97,7.19,7.19,0,0,0-1.28-1.81,18.729,18.729,0,0,0-3.01-1.66c-0.48-.23-0.75.07-0.63,0.62,0.08,0.4.22,0.78,0.37,1.27a3.991,3.991,0,0,1-1.32-.24,14.892,14.892,0,0,1-2.17-1.53,2.5,2.5,0,0,0-2.48-.82,4.992,4.992,0,0,0-1.46.88,5.9,5.9,0,0,1-2.48.86c0.04-.76.08-1.45,0.11-2.14a2.856,2.856,0,0,0-.87-2.08,0.5,0.5,0,0,0-.31-0.22,11.093,11.093,0,0,0-1.83.56,6.511,6.511,0,0,0-1.16.89c-0.05-.02-0.11-0.05-0.16-0.07A7.593,7.593,0,0,1,96.3,162a2.072,2.072,0,0,0-1.14-2.42,2.164,2.164,0,0,1-.61-0.52c-0.38-.45-0.6-0.44-0.87.1-0.35.7-.69,1.4-1.02,2.11-0.13.29-.25,0.66-0.63,0.5a0.876,0.876,0,0,1-.34-0.69,11.39,11.39,0,0,1,.26-2.18,1.4,1.4,0,0,0-.54-1.54c-0.33-.28-0.73-0.49-1.09-0.75-0.41-.3-0.81-0.61-1.34-1.02a5.431,5.431,0,0,1,.59,0,1.426,1.426,0,0,0,1.48-.53,3.134,3.134,0,0,0,.14-3.18,1.275,1.275,0,0,0-1.78-.73,3.532,3.532,0,0,1-1.99-.06c0.4-.86.83-1.68,1.18-2.53a0.869,0.869,0,0,0-.61-1.36c-0.43-.18-0.87-0.32-1.29-0.51a0.726,0.726,0,0,1-.39-0.38,0.648,0.648,0,0,1,.33-0.4c0.6-.39,1.24-0.73,1.82-1.14a2.9,2.9,0,0,0,1.35-2.26c0.02-.38.1-0.75,0.17-1.22,2.05,2.13,4.39,1.84,6.77,1.25l0.03-.3,0.59-.14c0.1,0.44.23,0.85,0.32,1.23-1.23.4-2.4,0.76-3.56,1.16a1.1,1.1,0,0,0-.85,1.05,8.1,8.1,0,0,0,.34,1.52c-0.41-.06-0.01,1.76.32,1.92,0.93,0.43,1.89.79,2.84,1.17,0.52,0.21,1.05.38,1.56,0.6s0.98,0.48,1.48.69a30.223,30.223,0,0,0,5.52,1.49c1.85,0.37,3.7.81,5.56,1.1,2.29,0.35,4.59.61,6.89,0.85s4.57,0.5,6.88.51c1.91,0.01,3.82.35,5.73,0.54,1.96,0.19,3.92.47,5.89,0.54,1.72,0.06,3.44-.15,5.16-0.2,1.38-.04,2.76-0.02,4.13,0,1.9,0.03,3.79.11,5.68,0.11,2.19,0,4.39-.06,6.59-0.07,0.85,0,1.7.05,2.56,0.08,0.33,0.01.66,0,.99,0,3.2-.01,6.39.03,9.59-0.05,2.64-.06,5.28-0.27,7.92-0.44,1.04-.07,2.08-0.18,3.12-0.3,1.3-.16,2.61-0.34,3.92-0.51,1.77-.22,3.55-0.41,5.32-0.66,1.45-.21,2.9-0.57,4.36-0.72a15.984,15.984,0,0,0,5.94-1.39c1.18-.6,2.33-1.28,3.48-1.93,1.01-.57,1.67-1.24,1.24-2.58a9.145,9.145,0,0,1-.3-1.49l1.98-.2a0.316,0.316,0,0,0,.09.21,0.52,0.52,0,0,0,.47-0.01,5.329,5.329,0,0,0,.69-0.48,3.179,3.179,0,0,1,.47,2.66c-0.31.6-.68,1.17-0.95,1.78a0.579,0.579,0,0,0,.61.88,2.369,2.369,0,0,1,.52-0.04A0.779,0.779,0,0,1,210.33,151.48Z" transform="translate(-85.293 -39.405)"/><path class="cls-2" d="M209.56,172.1a3,3,0,0,1-.71,2.41,1.377,1.377,0,0,1-1.12.43,5.527,5.527,0,0,0-3.8-.15,19.662,19.662,0,0,0-2.19.4c-2.23.73-4.4,1.66-6.67,2.24a23.117,23.117,0,0,1-4.65.39c-0.73.04-1.47-.11-2.21-0.09-1.27.04-2.55,0.09-3.82,0.23a41.226,41.226,0,0,0-4.29.7,27.046,27.046,0,0,0-2.91,1.01,10.853,10.853,0,0,1-5.03.41c-1.22-.16-2.44-0.31-3.67-0.35a32.138,32.138,0,0,0-3.67.11,14.629,14.629,0,0,0-3.18.48,14.366,14.366,0,0,1-4.73.52,41.981,41.981,0,0,1-4.85-.6c-1.45-.2-2.88-0.43-4.32-0.65-1.48-.22-2.95-0.47-4.43-0.66a15.587,15.587,0,0,0-2.26-.14c-0.75.02-1.49,0.13-2.24,0.22-0.84.1-1.67,0.24-2.51,0.3a29.469,29.469,0,0,1-3.38.13,14.332,14.332,0,0,1-2.59-.45c-0.63-.14-1.23-0.4-1.85-0.56a31.391,31.391,0,0,0-3.28-.81c-1.64-.24-3.11.48-4.6,1.03a3.243,3.243,0,0,1-1.43.33c-1.91-.27-3.81-0.66-5.72-0.98a22.1,22.1,0,0,0-3.59-.48c-2.02.01-4.05,0.22-6.07,0.31a2.719,2.719,0,0,1-1.12-.21,47.579,47.579,0,0,1-4.81-2.05,15.878,15.878,0,0,0-5.12-1.25,11.506,11.506,0,0,1-1.88-.27,18.52,18.52,0,0,1-2.16-1.03,1.07,1.07,0,0,0-.32-0.07l0.04-.4a0.9,0.9,0,0,0,.19.04,24.882,24.882,0,0,1,.02-2.87c0.28-2.18.59-4.36,1-6.52,0.33-1.78.82-3.54,1.26-5.36l0.12-.24a1.291,1.291,0,0,1,.53.66,8.173,8.173,0,0,1-.17,1.95,5.013,5.013,0,0,0,.06,1.5,1.122,1.122,0,0,0,.65.63c0.41,0.16.57-.26,0.73-0.52,0.27-.44.47-0.92,0.71-1.38,0.51-1,.48-0.93,1.45-0.45,0.84,0.43.91,0.9,0.87,2.04a8.416,8.416,0,0,0,0,1.23c0.05,0.53.42,0.68,0.86,0.36,0.42-.31.81-0.66,1.21-0.99a1.157,1.157,0,0,1,1.98.4,3.615,3.615,0,0,1,.07,2.76c-0.22.59-.15,0.77,0.5,0.78a3.815,3.815,0,0,0,2.81-1.02,2.355,2.355,0,0,1,3.59.19,4.39,4.39,0,0,0,2.03,1.45c0.62,0.17,1.26.31,1.89,0.44a2.38,2.38,0,0,0,.53-0.05c-0.26-.63-0.49-1.17-0.76-1.81a1.437,1.437,0,0,1,.5.01c0.73,0.37,1.45.75,2.17,1.15a1.892,1.892,0,0,1,.96,1.77c0,0.55.27,0.69,0.68,0.55a2.508,2.508,0,0,0,1.79-1.47,0.578,0.578,0,0,1,.3-0.36,2.548,2.548,0,0,1,2.63,1.21,10.987,10.987,0,0,1,.46,2.21c0.05,0.39.25,0.51,0.54,0.41a2.1,2.1,0,0,0,1.12-.62,4.623,4.623,0,0,0,.74-3.02c-0.11-.56.06-0.88,0.54-0.9a19.8,19.8,0,0,1,3.27.07,16.874,16.874,0,0,1,2.09.75,2.752,2.752,0,0,0,1.44.11,1.038,1.038,0,0,0,.58-1.36,0.646,0.646,0,0,1,.05-0.27,2,2,0,0,1,2,2.11c-0.03.3,0.06,0.42,0.35,0.23a3.019,3.019,0,0,0,.45-0.35c0.44-.39.87-0.81,1.33-1.18a0.622,0.622,0,0,1,.48-0.02c0.25,0.79.86,1.49,0.48,2.45s0.09,1.49,1.11,1.32a1.028,1.028,0,0,1,.17-0.01,1.893,1.893,0,0,0,1.89-1.13c0.39-.73.74-0.8,1.41-0.34,0.8,0.56,1.59,1.12,2.4,1.67a1.964,1.964,0,0,0,1.99.37c0.9-.37.99-0.61,0.44-1.43-0.1-.14-0.22-0.27-0.31-0.41-0.09-.17-0.15-0.35-0.26-0.61a2.857,2.857,0,0,0,.99-0.02,1.114,1.114,0,0,1,1.31.34,15.217,15.217,0,0,1,1.07,1.55,3.533,3.533,0,0,0,.38.57c0.24,0.26.46,0.2,0.63-.12a4.15,4.15,0,0,1,.52-0.89,0.718,0.718,0,0,1,.62-0.19,5.7,5.7,0,0,1,.89.88c0.57,0.66,1.12,1.32,1.69,1.98a2.607,2.607,0,0,0,2.63.78,0.9,0.9,0,0,0-.02-0.24c-0.34-.68-0.73-1.35-1.01-2.06a1.266,1.266,0,0,1-.1-1.33,7.589,7.589,0,0,1,1.4.18,14.925,14.925,0,0,1,2.44.92,1.1,1.1,0,0,0,1.48-.05,12.094,12.094,0,0,0,.99-1.47,0.3,0.3,0,0,1,.2.01q1.59,0.45,3.18.93a1.367,1.367,0,0,1,.48.31c0.47,0.4.61,0.37,0.76-.22a1.809,1.809,0,0,0,.04-0.57c-0.03-.54-0.08-1.07-0.13-1.7a5.3,5.3,0,0,1,.57.21,5.373,5.373,0,0,0,3.06.81c0.68-.01,1.37.16,2.06,0.21,0.38,0.02.83,0.32,1.11-.21-0.37-.88-0.74-1.75-1.15-2.7,0.24,0,.32-0.01.39,0a0.458,0.458,0,0,1,.21.1,3.156,3.156,0,0,1,1.51,2.5,0.475,0.475,0,0,0,.6.56,2.921,2.921,0,0,0,2.12-2.46c-0.04-.5.17-0.54,0.53-0.43a7.351,7.351,0,0,1,2.83,1.69,0.738,0.738,0,0,0,.75.23,1.624,1.624,0,0,0,1.4-1.68,17.747,17.747,0,0,1,1.75.67,1.443,1.443,0,0,1,1.13,1.3,1.893,1.893,0,0,0,.48-0.59,2.68,2.68,0,0,1,1.01-1.42,6.135,6.135,0,0,0,.78-0.46c0.29-.19.53-0.26,0.67,0.15a1.221,1.221,0,0,0,1.39.88,2.047,2.047,0,0,0,1.11-.38,5.654,5.654,0,0,0,.74-1.39c1.02,0.36,2.13.75,3.23,1.16a0.435,0.435,0,0,0,.67-0.43c-0.02-.47,0-0.93,0-1.47a4.291,4.291,0,0,1,.62.19c0.47,0.23.91,0.51,1.37,0.73,0.73,0.35,1.3.77,1.07,1.7a1.349,1.349,0,0,0,.04.33c0.34-.27.61-0.48,0.87-0.71,0.41-.37.82-0.74,1.2-1.14a2.071,2.071,0,0,0,.71-2.21,2.949,2.949,0,0,1-.01-0.8c1.15,0.41,2.21.78,3.3,1.17a3.488,3.488,0,0,0,.66-2.57,1.185,1.185,0,0,1,.28-0.03c0.88,0.32,1.76.64,2.63,0.98,0.27,0.11.48,0.22,0.51-.21,0.02-.31.07-0.62,0.1-0.93a9.092,9.092,0,0,0,.12-1.27,0.992,0.992,0,0,1,.67-1.22c0.18,0.5.34,1,.53,1.5a10.988,10.988,0,0,1,.81,3.88c0,0.71-.01,1.42.03,2.13C209.33,168.46,209.48,170.28,209.56,172.1Z" transform="translate(-85.293 -39.405)"/><path class="cls-1" d="M209.44,142.07a1.433,1.433,0,0,1-.16,1,2.308,2.308,0,0,0-1.23,2.52c0.01,0.08-.1.18-0.1,0.27s0.01,0.18.02,0.26l-1.98.2c-0.07-.5-0.13-1.01-0.22-1.51a0.507,0.507,0,0,0-.42-0.13,1.021,1.021,0,0,0-.33.33l-0.02.02a3.088,3.088,0,0,0-2.11-3.13c-0.72-.32-1.48-0.56-2.21-0.85a0.6,0.6,0,0,1-.37-0.29,2.342,2.342,0,0,1,.5-1.89,0.594,0.594,0,0,1,.5-0.05c0.31,0.1.58,0.3,0.89,0.4a1.82,1.82,0,0,0,1.85-.71c0.17-.55.49-0.48,0.82-0.23a2,2,0,0,0,1.41.42c0.46-.02.92-0.01,1.24-0.01,0.23,0.51.43,0.89,0.59,1.3C208.42,140.77,209.39,141.14,209.44,142.07Z" transform="translate(-85.293 -39.405)"/><path class="cls-3" d="M209.34,243.93c0.01,1.93,0,3.87-.16,5.79a13.991,13.991,0,0,1-.81,3.61,4.554,4.554,0,0,1-2.68,2.98,33.675,33.675,0,0,1-4.21,1.06c-0.88.17-1.81,0.13-2.72,0.22-1.16.11-2.31,0.26-3.46,0.39-1.03.11-2.05,0.26-3.07,0.32s-2.05.06-3.07,0.02c-1.18-.04-2.36-0.16-3.55-0.23-0.45-.04-0.91-0.07-1.37-0.08-1.33,0-2.66-.05-3.98.02-1.66.08-3.32,0.31-4.99,0.4-0.98.05-1.98-.09-2.97-0.07-1.51.04-3.03,0.15-4.54,0.23-0.78.04-1.55,0.07-2.33,0.12-1.84.13-3.67,0.35-5.51,0.4-2.63.07-5.25-.01-7.88,0.04-2.9.04-5.8,0.2-8.7,0.22-2.17.01-4.35-.15-6.53-0.2-2.26-.06-4.53-0.09-6.79-0.09-1.99,0-3.98.06-5.96,0.09-2.17.03-4.34,0.06-6.51,0.07s-4.33.05-6.49,0c-1.1-.02-2.2-0.24-3.3-0.28-1.84-.08-3.68-0.16-5.51-0.11s-3.64.24-5.38-.52a5.845,5.845,0,0,1-.95-0.52,3.366,3.366,0,0,1-1.12-1.93,18.992,18.992,0,0,1-.9-5.48c-0.13-1.6-.26-3.2-0.47-4.8-0.23-1.68-.57-3.36-0.82-5.04-0.15-1.06-.24-2.13-0.35-3.19l0.37-.91a18.047,18.047,0,0,0,2.73.22c1.78-.11,3.54-0.42,5.32-0.5,1.6-.07,3.21.05,4.81,0.08,1.84,0.04,3.67.07,5.51,0.12,2.38,0.07,4.76.19,7.15,0.23,2.11,0.04,4.23.02,6.34-.01,0.73-.01,1.46-0.19,2.19-0.18,1.18,0.02,2.36.13,3.55,0.2,0.71,0.04,1.43.08,2.15,0.1,2.54,0.09,5.07.21,7.61,0.24,2.19,0.02,4.37-.07,6.55-0.1,0.39-.01.77,0.08,1.16,0.07,1.61-.04,3.22-0.14,4.83-0.14,1.5,0.01,3.01.18,4.52,0.17q6.81-.015,13.63-0.13c2.76-.04,5.52-0.15,8.29-0.2,2.05-.03,4.1,0,6.15-0.02,1.44-.02,2.88-0.07,4.32-0.11,2.1-.05,4.21-0.04,6.3-0.16,2.07-.11,4.13-0.34,6.18-0.54,2.24-.21,4.46-0.45,6.76-0.69a2.164,2.164,0,0,1,.17.51,15.018,15.018,0,0,0,.09,1.9A36.206,36.206,0,0,1,209.34,243.93Z" transform="translate(-85.293 -39.405)"/><path d="M206.29,147.81c0.43,1.34-.23,2.01-1.24,2.58-1.15.65-2.3,1.33-3.48,1.93a15.984,15.984,0,0,1-5.94,1.39c-1.46.15-2.91,0.51-4.36,0.72-1.77.25-3.55,0.44-5.32,0.66-1.31.17-2.62,0.35-3.92,0.51-1.04.12-2.08,0.23-3.12,0.3-2.64.17-5.28,0.38-7.92,0.44-3.2.08-6.39,0.04-9.59,0.05-0.33,0-.66.01-0.99,0-0.86-.03-1.71-0.08-2.56-0.08-2.2.01-4.4,0.07-6.59,0.07-1.89,0-3.78-.08-5.68-0.11-1.37-.02-2.75-0.04-4.13,0-1.72.05-3.44,0.26-5.16,0.2-1.97-.07-3.93-0.35-5.89-0.54-1.91-.19-3.82-0.53-5.73-0.54-2.31-.01-4.59-0.28-6.88-0.51s-4.6-.5-6.89-0.85c-1.86-.29-3.71-0.73-5.56-1.1a30.223,30.223,0,0,1-5.52-1.49c-0.5-.21-0.98-0.48-1.48-0.69s-1.04-.39-1.56-0.6c-0.95-.38-1.91-0.74-2.84-1.17-0.33-.16-0.73-1.98-0.32-1.92,0.01,0.05.03,0.1,0.04,0.15,0-.03.01-0.07,0.01-0.11,1.03,1.6,3.22,2.28,4.22,2.67,1.12,0.43,2.2.99,3.34,1.36,1.28,0.41,2.59.7,3.9,0.99,1.9,0.41,3.8.83,5.72,1.16,1.36,0.24,2.74.37,4.11,0.51,2.87,0.3,5.73.61,8.6,0.86,1.64,0.14,3.3.09,4.94,0.24,2.01,0.19,4,.57,6.01.75a40.028,40.028,0,0,0,4.1.04c2.06-.02,4.13-0.07,6.19-0.1,1.46-.01,2.93,0,4.39,0,2.73-.01,5.45-0.04,8.18,0,2.76,0.04,5.51.21,8.27,0.21,2.1,0,4.2-.18,6.3-0.27,1.4-.07,2.8-0.11,4.2-0.21,2.04-.15,4.07-0.33,6.11-0.52,1.56-.15,3.13-0.3,4.68-0.51,2.33-.33,4.64-0.73,6.96-1.08,1.29-.2,2.59-0.34,3.87-0.55a14.356,14.356,0,0,0,6.15-2.49c0.46-.33.99-0.55,1.46-0.85a0.861,0.861,0,0,0,.42-0.51c-0.13-1.09.11-2.23-.4-3.27a4.371,4.371,0,0,0-.35-0.5l-0.02-.02a1.021,1.021,0,0,1,.33-0.33,0.507,0.507,0,0,1,.42.13c0.09,0.5.15,1.01,0.22,1.51A9.145,9.145,0,0,0,206.29,147.81Z" transform="translate(-85.293 -39.405)"/><path class="cls-4" d="M205.79,148.8a0.861,0.861,0,0,1-.42.51c-0.47.3-1,.52-1.46,0.85a14.356,14.356,0,0,1-6.15,2.49c-1.28.21-2.58,0.35-3.87,0.55-2.32.35-4.63,0.75-6.96,1.08-1.55.21-3.12,0.36-4.68,0.51-2.04.19-4.07,0.37-6.11,0.52-1.4.1-2.8,0.14-4.2,0.21-2.1.09-4.2,0.27-6.3,0.27-2.76,0-5.51-.17-8.27-0.21-2.73-.04-5.45-0.01-8.18,0-1.46,0-2.93-.01-4.39,0-2.06.03-4.13,0.08-6.19,0.1a40.028,40.028,0,0,1-4.1-.04c-2.01-.18-4-0.56-6.01-0.75-1.64-.15-3.3-0.1-4.94-0.24-2.87-.25-5.73-0.56-8.6-0.86-1.37-.14-2.75-0.27-4.11-0.51-1.92-.33-3.82-0.75-5.72-1.16-1.31-.29-2.62-0.58-3.9-0.99-1.14-.37-2.22-0.93-3.34-1.36-1-.39-3.19-1.07-4.22-2.67v-0.01c0.01-.15.03-0.36,0.05-0.62,0.21,0.11.35,0.16,0.47,0.24,0.56,0.42,1.11.86,1.68,1.26a9.9,9.9,0,0,0,3.73,1.27c0.99,0.21,1.98.43,2.95,0.69,1.25,0.33,2.46.77,3.72,1.02a73.418,73.418,0,0,0,9.49.75c0.76,0.05,1.52.09,2.27,0.17,1.66,0.17,3.31.45,4.98,0.54,2.26,0.12,4.54.06,6.81,0.15,2.61,0.11,5.21.27,7.82,0.47a88.47,88.47,0,0,0,10.68.19c2.97-.14,5.95-0.17,8.92-0.26,2.18-.06,4.36-0.12,6.53-0.23,3.83-.2,7.66-0.48,11.49-0.65,2.64-.12,5.29-0.05,7.94-0.17,1.92-.09,3.83-0.38,5.75-0.54,2.65-.23,5.32-0.37,7.98-0.63a8.7,8.7,0,0,0,4.59-1.47,7.506,7.506,0,0,0,3.52-4.24,4.371,4.371,0,0,1,.35.5C205.9,146.57,205.66,147.71,205.79,148.8Z" transform="translate(-85.293 -39.405)"/><path class="cls-5" d="M153.96,137.05a17.955,17.955,0,0,1,.63,7.09,2.578,2.578,0,0,1-.67,1.54,6.752,6.752,0,0,1-2.16.75c-0.65.18-1.33,0.25-1.99,0.39a2.344,2.344,0,0,1-1.69.04,1.4,1.4,0,0,0-.73.01c-1.59.2-3.18,0.44-4.77,0.62a22.614,22.614,0,0,0-2.62.16c-1.7.38-3.38,0-5.06,0.07-0.65.02-1.31,0.03-1.96-.01-1.12-.05-2.24-0.2-3.36-0.2-2.01-.01-4.02.1-6.02,0.09a39.884,39.884,0,0,1-6.82-.21c-1.06-.18-2.14-0.32-3.21-0.48-1.18-.19-2.36-0.41-3.54-0.58-1.3-.19-2.61-0.33-3.91-0.53-1.22-.19-2.44-0.41-3.65-0.65a7.083,7.083,0,0,1-3.9-1.59,1.5,1.5,0,0,1-.55-1.08,9.8,9.8,0,0,0-.23-1.95,14.77,14.77,0,0,1-.56-4.98,5.856,5.856,0,0,1,.83-2.8l0.16,0.1a0.854,0.854,0,0,0,.07.45,6.493,6.493,0,0,0,1.58,1.32c1.72,0.73,3.51,1.27,5.24,1.98a30.785,30.785,0,0,0,6.74,1.61c2.28,0.38,4.59.61,6.89,0.95,2.35,0.34,4.69.76,7.05,1.07,1.58,0.21,3.18.34,4.77,0.42,1.01,0.05,2.03-.05,3.04-0.09a27.064,27.064,0,0,0,2.85-.15c1.87-.25,3.74-0.56,5.6-0.9a22.248,22.248,0,0,0,8.73-3.13,2.733,2.733,0,0,0,.56-0.85l0.57-.72a0.763,0.763,0,0,1,.11.08C152.71,135.5,153.65,135.89,153.96,137.05Z" transform="translate(-85.293 -39.405)"/><path class="cls-5" d="M151.87,134.81l-0.57.72a3.193,3.193,0,0,0-1.04.14c-0.64.31-1.2,0.78-1.84,1.09a31.641,31.641,0,0,1-8.86,2.49,59.667,59.667,0,0,1-6.82.51c-0.74.04-1.47,0.06-2.21,0.06l-0.03-1.99c0-.03.01-0.06,0.01-0.09,0.77-.07,1.54-0.14,2.31-0.23a13.052,13.052,0,0,0,5.9-2.51,0.959,0.959,0,0,0,.25-0.65,1.144,1.144,0,0,0-.48-0.21c-0.77-.17-1.56-0.18-2.34-0.28l0.18-1.52a0.809,0.809,0,0,0,.38,0c1.14-.9,2.27-1.8,3.46-2.75a5.158,5.158,0,0,0-.52-0.33,26.827,26.827,0,0,0-6.26-2.04,21.079,21.079,0,0,0-2.49-.28l0.13-2.3c1.73,0.09,3.48.12,5.18,0.38a27.687,27.687,0,0,1,6.87,1.72,1.422,1.422,0,0,1,.52.46c0.63,0.82,1.19,1.7,1.88,2.47s1.72,1.16,2.27,2.08a0.849,0.849,0,0,0,.22.2C149.27,132.89,150.63,133.77,151.87,134.81Z" transform="translate(-85.293 -39.405)"/><path class="cls-5" d="M136.33,132.34l-0.18,1.52a4.994,4.994,0,0,1-1.8-.5,0.755,0.755,0,0,0-.46.26,1.725,1.725,0,0,1-.38.51,5.143,5.143,0,0,1-1.86.12c-1.1-.25-2.15-0.72-3.24-1.02a9.057,9.057,0,0,0-1.94-.26h-0.02l-0.35-1.68a0.668,0.668,0,0,0,.45-0.36,0.9,0.9,0,0,1,.38-0.41,6,6,0,0,1,2.8-.36c1.21,0.19,2.48,0,3.71.13a7.847,7.847,0,0,1,2.46.73,2.393,2.393,0,0,1,.37,1.2A0.445,0.445,0,0,0,136.33,132.34Z" transform="translate(-85.293 -39.405)"/><path class="cls-5" d="M131.03,124.64l-0.13,2.3a15.132,15.132,0,0,0-2.23.05,22.785,22.785,0,0,0-2.74.34,4.838,4.838,0,0,0-2.38,1,0.539,0.539,0,0,0-.05.84,8.771,8.771,0,0,0,.81.91,1.1,1.1,0,0,0,.62.38,0.794,0.794,0,0,1,.76.49,0.547,0.547,0,0,0,.41.34l0.35,1.68a0.745,0.745,0,0,0-.56.34,16.011,16.011,0,0,0-1.09,2.34,1.284,1.284,0,0,0,.19,1.06,1.765,1.765,0,0,0,1.06.55c1.48,0.23,2.96.39,4.45,0.57l0.03,1.99c-0.93.01-1.85-.02-2.78-0.08a39.478,39.478,0,0,1-4.01-.57c-1.1-.17-2.2-0.41-3.3-0.58-0.8-.12-1.62-0.14-2.43-0.26l-1.54-.21,0.35-2.55a5.034,5.034,0,0,0,.95.01,16.43,16.43,0,0,0,3.02-.8,4.139,4.139,0,0,0,.87-0.56c-0.31-.22-0.63-0.44-0.94-0.65a0.43,0.43,0,0,0-.12-0.02c-0.8-.08-1.59-0.17-2.43-0.26,0.16-.58-0.13-0.73-0.64-0.67a4.558,4.558,0,0,1-.64-0.01c-0.63-.03-0.41-0.6-0.58-0.92a2.53,2.53,0,0,1,.56-0.25c0.49-.1.98-0.15,1.49-0.23-0.32-.86-0.62-1.66-0.92-2.45a0.507,0.507,0,0,0-.47-0.43l-0.31-2.55,2.69-.33c1.56-.19,3.11-0.37,4.67-0.55,1.23-.13,2.46-0.31,3.7-0.37a25.367,25.367,0,0,1,2.89.09C130.75,124.63,130.89,124.64,131.03,124.64Z" transform="translate(-85.293 -39.405)"/><path class="cls-5" d="M116.66,125.78l0.31,2.55a0.739,0.739,0,0,0-.23.04c-1.02.32-2.06,0.6-3.09,0.9a3.983,3.983,0,0,0-2.01,1.42,1.761,1.761,0,0,0-.53,1.7,3.879,3.879,0,0,0,2.55,2.41,7.694,7.694,0,0,0,1.54.5c0.53,0.1,1.08.22,1.62,0.27l-0.35,2.55c-1.84-.26-3.67-0.51-5.5-0.83-1.76-.32-3.51-0.73-5.23-1.19-1.25-.32-2.46-0.78-3.67-1.22a8.8,8.8,0,0,1-3.89-2.03l-0.16-.1a3.471,3.471,0,0,1,.29-0.38c0.4-.47.39-0.51-0.27-0.8l0.37-.37a0.313,0.313,0,0,0,.1.05c0.54-.26,1-0.49,1.47-0.71,1.2-.56,2.42-1.08,3.6-1.7a18.28,18.28,0,0,1,4.71-1.73c1.72-.37,3.46-0.66,5.19-0.91C114.54,126.04,115.6,125.91,116.66,125.78Z" transform="translate(-85.293 -39.405)"/><path d="M93.72,146.471l-0.061.742a9.645,9.645,0,0,1-.378-1.677,1.087,1.087,0,0,1,.845-1.045c1.162-.4,2.333-0.763,3.562-1.161-0.152-.612-0.379-1.328-0.5-2.062a23.756,23.756,0,0,1-.3-2.771,31.742,31.742,0,0,1,0-3.363,8.311,8.311,0,0,1,1.034-3.335q0.061-.117.123-0.233c0.654,0.294.67,0.338,0.263,0.809a5.314,5.314,0,0,0-1.11,3.174,14.857,14.857,0,0,0,.551,4.979,9.736,9.736,0,0,1,.232,1.955,1.524,1.524,0,0,0,.552,1.074,6.975,6.975,0,0,0,3.9,1.592q1.815,0.369,3.648.651c1.3,0.2,2.608.339,3.908,0.531,1.185,0.175,2.363.39,3.546,0.576,1.069,0.168,2.143.3,3.208,0.487a40.864,40.864,0,0,0,6.815.208c2.007,0.013,4.014-.1,6.021-0.092,1.122,0,2.242.151,3.364,0.206,0.651,0.031,1.305.028,1.957,0,1.685-.066,3.365.316,5.061-0.068a23.934,23.934,0,0,1,2.614-.162c1.594-.177,3.18-0.414,4.771-0.618a1.414,1.414,0,0,1,.739-0.009,2.334,2.334,0,0,0,1.69-.037c0.658-.14,1.331-0.218,1.98-0.389a6.85,6.85,0,0,0,2.164-.753,2.626,2.626,0,0,0,.672-1.544,16.652,16.652,0,0,0,.111-1.879,14.66,14.66,0,0,0-.738-5.206c-0.315-1.161-1.259-1.547-1.989-2.165-1.262-1.068-2.666-1.969-4.009-2.941a0.76,0.76,0,0,1-.218-0.192c-0.552-.921-1.587-1.318-2.269-2.08s-1.252-1.653-1.884-2.476a1.427,1.427,0,0,0-.513-0.462,28.065,28.065,0,0,0-6.868-1.72c-1.847-.273-3.734-0.288-5.6-0.4a26.6,26.6,0,0,0-2.889-.087c-1.236.062-2.467,0.235-3.7,0.372q-2.337.261-4.672,0.543c-1.957.24-3.917,0.463-5.867,0.752-1.737.257-3.473,0.541-5.188,0.909a18.416,18.416,0,0,0-4.717,1.731c-1.173.618-2.4,1.14-3.6,1.706-0.466.22-.931,0.444-1.468,0.7-0.312-.125-0.249-0.437-0.011-0.632a6.891,6.891,0,0,1,1.254-.79q2.428-1.228,4.876-2.415a14.971,14.971,0,0,1,4.446-1.246c1.278-.184,2.536-0.506,3.812-0.717,0.914-.151,1.843-0.2,2.762-0.326,2.239-.3,4.475-0.626,6.716-0.917,0.84-.109,1.688-0.164,2.533-0.222,1.447-.1,2.9-0.281,4.343-0.243,1.817,0.048,3.631.265,5.443,0.442a36.929,36.929,0,0,1,3.918.5,7.68,7.68,0,0,1,2.69.767,9.245,9.245,0,0,0,2.01.685c0-.435-0.031-0.87.006-1.3a4.851,4.851,0,0,1,1.873-3.079,15.873,15.873,0,0,1,3.3-2.438,16.935,16.935,0,0,1,3.741-1.328c0.814-.222,1.627-0.457,2.455-0.611a25.947,25.947,0,0,1,3.687-.546c1.812-.07,3.632.052,5.448,0.07,0.568,0.006,1.137-.089,1.706-0.088a26.164,26.164,0,0,1,6.642,1.236c1.618,0.429,3.233.874,4.852,1.3a0.7,0.7,0,0,0,.365-0.075c0.068-.025.159-0.147,0.174-0.136,0.7,0.5,1.081-.537,1.705-0.34a9.487,9.487,0,0,1,1.806.607q3.03,1.7,5.993,3.52c1.357,0.839,2.7,1.723,3.963,2.691a57.482,57.482,0,0,1,4.785,3.955,9.653,9.653,0,0,1,2.781,4.207c0.282,0.95.732,1.849,1.078,2.782,0.206,0.554.356,1.129,0.554,1.767,0.179-.1.311-0.168,0.429-0.252a0.722,0.722,0,0,1,.993.071,1.16,1.16,0,0,0,1.995-.366,0.765,0.765,0,0,1,1.286-.217,2.608,2.608,0,0,0,3.357-.123,0.961,0.961,0,0,1,.329-0.234,0.639,0.639,0,0,1,.452-0.017,0.945,0.945,0,0,1,.073.528,0.559,0.559,0,0,1-.182.221,1.428,1.428,0,0,0,.58,2.536,4.373,4.373,0,0,1,.624.4l-0.411.557c0.71,0.588.24,1.314,0.088,1.958a3.357,3.357,0,0,1-.9.909,4.27,4.27,0,0,0-.43.737l0.18,0.13a1.429,1.429,0,0,0,.3-0.207c0.372-.429.456-0.389,0.737,0.083a5.085,5.085,0,0,1,.617,3.433,4.821,4.821,0,0,1-.625,1.347,6.835,6.835,0,0,1-.409.6h0.843c0.794,0,.832.01,0.855,0.8a4.353,4.353,0,0,1-.866,3.09,10.212,10.212,0,0,1-1.356,1.15c-0.182.15-.375,0.287-0.663,0.506,0.485,0.1.823,0.161,1.156,0.242a0.691,0.691,0,0,1,.558.9,2.072,2.072,0,0,1-1.381,1.861,17.267,17.267,0,0,1,1.32,5.46,43.132,43.132,0,0,0,.273,5.012,11.714,11.714,0,0,1-.169,4.581,2.282,2.282,0,0,1-1.778,1.772,0.7,0.7,0,0,1-.445-0.057,4.316,4.316,0,0,0-3.107-.273c-0.994.224-2.04,0.241-3.014,0.521-2.257.648-4.462,1.488-6.734,2.072a14.732,14.732,0,0,1-3.475.224c-1.245.013-2.5-.162-3.734-0.08-1.694.112-3.378,0.385-5.066,0.594a12.52,12.52,0,0,0-1.95.277c-1.055.306-2.062,0.78-3.121,1.071a18.53,18.53,0,0,1-2.771.485,31.133,31.133,0,0,1-5.249-.349c-1.431-.075-2.872,0-4.308.045a38.6,38.6,0,0,0-5.136.868,14.234,14.234,0,0,1-5.558,0c-1.568-.357-3.176-0.536-4.767-0.789-1.239-.2-2.479-0.383-3.718-0.581-1.206-.192-2.405-0.484-3.618-0.56a14.3,14.3,0,0,0-2.935.231,34.063,34.063,0,0,1-6.961.425,9.71,9.71,0,0,1-1.989-.38c-1.374-.379-2.718-0.88-4.105-1.194a6.507,6.507,0,0,0-4.051.266,11.373,11.373,0,0,1-2.722.825,7.283,7.283,0,0,1-2.385-.151c-1.852-.361-3.676-0.872-5.534-1.183a12.7,12.7,0,0,0-2.674.067c-1.319.066-2.639,0.137-3.957,0.225a7.1,7.1,0,0,1-3.494-.706c-1.593-.734-3.161-1.527-4.782-2.191a10.083,10.083,0,0,0-2.315-.483,25.674,25.674,0,0,1-2.929-.382,22.379,22.379,0,0,1-3.054-1.238,0.967,0.967,0,0,1-.193-0.467,1.952,1.952,0,0,1,.446.1,20.752,20.752,0,0,0,2.161,1.03,12.145,12.145,0,0,0,1.877.27,15.762,15.762,0,0,1,5.122,1.242,48.929,48.929,0,0,0,4.807,2.056,2.754,2.754,0,0,0,1.122.209c2.023-.091,4.045-0.3,6.068-0.309a22.075,22.075,0,0,1,3.591.479c1.91,0.316,3.81.7,5.725,0.977a3.167,3.167,0,0,0,1.427-.327c1.49-.557,2.96-1.277,4.6-1.029a30.3,30.3,0,0,1,3.279.8c0.621,0.166,1.219.425,1.844,0.567a14.711,14.711,0,0,0,2.595.447,29.367,29.367,0,0,0,3.376-.129c0.842-.062,1.677-0.207,2.516-0.3,0.745-.085,1.491-0.2,2.238-0.217a15.126,15.126,0,0,1,2.255.136c1.481,0.194,2.955.44,4.432,0.665,1.44,0.219,2.877.45,4.32,0.652a43.6,43.6,0,0,0,4.851.6,14.363,14.363,0,0,0,4.736-.525,14.606,14.606,0,0,1,3.176-.478,32.093,32.093,0,0,1,3.667-.114c1.229,0.041,2.456.195,3.678,0.35a10.694,10.694,0,0,0,5.021-.4,26.041,26.041,0,0,1,2.912-1.01,40.73,40.73,0,0,1,4.3-.7c1.266-.147,2.545-0.2,3.819-0.237,0.733-.022,1.471.13,2.2,0.094a23.655,23.655,0,0,0,4.658-.391c2.265-.578,4.437-1.51,6.667-2.236a18.913,18.913,0,0,1,2.189-.409,5.527,5.527,0,0,1,3.8.158,1.4,1.4,0,0,0,1.119-.431,3.011,3.011,0,0,0,.712-2.412c-0.084-1.821-.225-3.639-0.321-5.459-0.038-.709-0.025-1.421-0.024-2.132a11,11,0,0,0-.818-3.88c-0.185-.5-0.35-1-0.524-1.5a0.987,0.987,0,0,0-.673,1.214,9.621,9.621,0,0,1-.115,1.277c-0.033.308-.089,0.613-0.108,0.922-0.026.438-.236,0.323-0.507,0.217-0.87-.341-1.749-0.658-2.626-0.977a0.835,0.835,0,0,0-.279.025,3.513,3.513,0,0,1-.666,2.574l-3.294-1.177a2.925,2.925,0,0,0,.01.8,2.081,2.081,0,0,1-.716,2.213c-0.377.4-.792,0.773-1.2,1.144-0.253.23-.528,0.435-0.866,0.71a1.323,1.323,0,0,1-.041-0.328,1.4,1.4,0,0,0-1.066-1.7c-0.467-.221-0.907-0.5-1.369-0.731a4.149,4.149,0,0,0-.63-0.189c0,0.537-.011,1,0,1.464a0.435,0.435,0,0,1-.673.431c-1.1-.41-2.208-0.793-3.224-1.154a5.842,5.842,0,0,1-.744,1.39,2.073,2.073,0,0,1-1.1.382,1.22,1.22,0,0,1-1.392-.883c-0.142-.414-0.386-0.339-0.672-0.148a7.467,7.467,0,0,1-.777.459,2.659,2.659,0,0,0-1.009,1.415,2.041,2.041,0,0,1-.487.6,1.439,1.439,0,0,0-1.126-1.3,17.09,17.09,0,0,0-1.748-.667,1.623,1.623,0,0,1-1.4,1.677,0.736,0.736,0,0,1-.747-0.232,7.318,7.318,0,0,0-2.832-1.685c-0.364-.114-0.566-0.073-0.527.429a2.916,2.916,0,0,1-2.127,2.452,0.471,0.471,0,0,1-.6-0.552,3.2,3.2,0,0,0-1.5-2.509,0.537,0.537,0,0,0-.21-0.092,2.7,2.7,0,0,0-.391,0l1.148,2.7c-0.277.535-.733,0.235-1.112,0.208-0.689-.048-1.375-0.218-2.06-0.206a5.391,5.391,0,0,1-3.064-.81,3.278,3.278,0,0,0-.562-0.207c0.049,0.627.1,1.158,0.128,1.69a1.914,1.914,0,0,1-.043.578c-0.151.585-.288,0.614-0.756,0.215a1.455,1.455,0,0,0-.483-0.3c-1.057-.325-2.12-0.633-3.183-0.938a0.35,0.35,0,0,0-.2,0,12.451,12.451,0,0,1-.986,1.473,1.114,1.114,0,0,1-1.486.05,14.771,14.771,0,0,0-2.432-.926,8.293,8.293,0,0,0-1.4-.181,1.284,1.284,0,0,0,.1,1.335c0.278,0.71.67,1.374,1.007,2.061a0.748,0.748,0,0,1,.023.242,2.638,2.638,0,0,1-2.633-.786c-0.565-.657-1.118-1.323-1.689-1.975a5.211,5.211,0,0,0-.883-0.882,0.708,0.708,0,0,0-.628.19,4.044,4.044,0,0,0-.518.889c-0.166.321-.383,0.38-0.63,0.114a4.464,4.464,0,0,1-.381-0.568A13.932,13.932,0,0,0,146.64,169a1.094,1.094,0,0,0-1.305-.339,3.142,3.142,0,0,1-.995.017,6.464,6.464,0,0,0,.262.6c0.084,0.148.212,0.271,0.308,0.414,0.549,0.818.457,1.056-.444,1.433a1.965,1.965,0,0,1-1.987-.369c-0.806-.549-1.6-1.116-2.4-1.673-0.668-.464-1.018-0.389-1.408.334a1.89,1.89,0,0,1-1.883,1.138,0.79,0.79,0,0,0-.175.006c-1.017.17-1.5-.347-1.108-1.321s-0.229-1.657-.484-2.451a0.636,0.636,0,0,0-.481.027c-0.46.37-.884,0.786-1.326,1.179a3.978,3.978,0,0,1-.454.351c-0.285.188-.381,0.062-0.35-0.233a2,2,0,0,0-2-2.113,0.775,0.775,0,0,0-.047.27,1.038,1.038,0,0,1-.58,1.359,2.734,2.734,0,0,1-1.436-.107,16.123,16.123,0,0,0-2.089-.748,19.28,19.28,0,0,0-3.273-.074c-0.485.018-.646,0.344-0.536,0.9a4.642,4.642,0,0,1-.744,3.022,2.11,2.11,0,0,1-1.125.617c-0.283.1-.481-0.016-0.534-0.4a10.619,10.619,0,0,0-.465-2.219,2.553,2.553,0,0,0-2.624-1.209,0.609,0.609,0,0,0-.3.364,2.525,2.525,0,0,1-1.794,1.474c-0.4.14-.675,0-0.676-0.558a1.9,1.9,0,0,0-.962-1.771c-0.715-.4-1.44-0.774-2.168-1.146a1.621,1.621,0,0,0-.5-0.006l0.764,1.8a1.864,1.864,0,0,1-.533.05c-0.635-.126-1.268-0.267-1.893-0.435a4.425,4.425,0,0,1-2.032-1.447,2.349,2.349,0,0,0-3.586-.2,3.787,3.787,0,0,1-2.811,1.027c-0.65-.012-0.719-0.19-0.5-0.781a3.625,3.625,0,0,0-.067-2.759,1.156,1.156,0,0,0-1.98-.4c-0.4.331-.793,0.68-1.213,0.988s-0.8.168-.86-0.361a8.966,8.966,0,0,1,.006-1.227c0.036-1.138-.032-1.608-0.875-2.035-0.967-.489-0.937-0.552-1.447.442-0.237.463-.443,0.945-0.716,1.384-0.159.255-.32,0.679-0.723,0.519a1.145,1.145,0,0,1-.657-0.626,5.186,5.186,0,0,1-.055-1.5,8.385,8.385,0,0,0,.172-1.948,2.39,2.39,0,0,0-1-1c-0.869-.67-1.771-1.3-2.649-1.957a0.849,0.849,0,0,1-.3-0.418,4.071,4.071,0,0,1-.071-0.734,3.193,3.193,0,0,1,.68.12,12.882,12.882,0,0,0,1.347.611,1.037,1.037,0,0,0,1.388-.863,2.642,2.642,0,0,0-.276-1.949,0.711,0.711,0,0,0-1.01-.391,3.309,3.309,0,0,1-2.052.129c-0.518-.115-1.055-0.143-1.711-0.226a2.3,2.3,0,0,1,.445-0.505c1.011-.537,1.342-1.574,1.834-2.483,0.275-.508.109-0.665-0.433-0.923-0.674-.32-1.515-0.332-1.956-1.13a0.491,0.491,0,0,1,.24-0.818c0.676-.376,1.328-0.8,2.01-1.162a2.741,2.741,0,0,0,1.338-3.022c-0.078-.5-0.294-0.985-0.395-1.487a1.039,1.039,0,0,1,.217-0.469,0.962,0.962,0,0,1,.37.244,4.379,4.379,0,0,0,3.9,2.608,17.136,17.136,0,0,0,2.475-.19c0.28-.021,1.248-0.12,1.529-0.12-0.008.1-.7,0.317-0.71,0.418-2.383.589-4.722,0.874-6.773-1.252-0.068.475-.143,0.845-0.17,1.218a2.917,2.917,0,0,1-1.344,2.264c-0.588.408-1.222,0.747-1.823,1.136a0.657,0.657,0,0,0-.329.4,0.683,0.683,0,0,0,.386.38c0.421,0.192.866,0.329,1.293,0.508a0.87,0.87,0,0,1,.6,1.364c-0.348.849-.774,1.667-1.18,2.527a3.5,3.5,0,0,0,2,.06,1.275,1.275,0,0,1,1.777.729,3.132,3.132,0,0,1-.135,3.181,1.454,1.454,0,0,1-1.483.535,4.054,4.054,0,0,0-.6,0c0.533,0.408.931,0.726,1.343,1.024,0.359,0.26.757,0.469,1.1,0.751a1.4,1.4,0,0,1,.541,1.537,11.45,11.45,0,0,0-.264,2.181,0.847,0.847,0,0,0,.342.686c0.374,0.158.5-.212,0.629-0.5q0.494-1.062,1.019-2.109c0.271-.541.483-0.548,0.867-0.1a2.187,2.187,0,0,0,.615.517A2.071,2.071,0,0,1,96.3,162a7.45,7.45,0,0,0-.059,1.065l0.159,0.076a6.446,6.446,0,0,1,1.158-.888,10.671,10.671,0,0,1,1.832-.563,0.528,0.528,0,0,1,.315.219,2.9,2.9,0,0,1,.867,2.079c-0.03.688-.073,1.376-0.115,2.144a5.813,5.813,0,0,0,2.484-.864,5.152,5.152,0,0,1,1.464-.879,2.5,2.5,0,0,1,2.479.816,14.337,14.337,0,0,0,2.165,1.538,4.149,4.149,0,0,0,1.32.232c-0.144-.482-0.286-0.867-0.37-1.264-0.118-.553.154-0.852,0.632-0.624a18.732,18.732,0,0,1,3.012,1.659,7.313,7.313,0,0,1,1.281,1.817,1.363,1.363,0,0,0,1.269-.97c0.3-.831.458-0.912,1.322-0.686a7.746,7.746,0,0,1,.991.27,2.472,2.472,0,0,1,1.784,2.763,3.218,3.218,0,0,0,.147.719,1.223,1.223,0,0,0,1.254-1.188,4.687,4.687,0,0,0,.138-2.273c-0.113-.368.142-0.541,0.479-0.775,1.033-.714,2.1-0.37,3.13-0.21,1.21,0.189,2.382.61,3.581,0.889a0.8,0.8,0,0,0,.7-0.166,0.659,0.659,0,0,0-.192-0.924,4.026,4.026,0,0,1-.773-0.789,1.149,1.149,0,0,1-.1-0.477,1.085,1.085,0,0,1,.449-0.063,6.75,6.75,0,0,1,3.924,2.675c0.482-.418.976-0.837,1.458-1.269,0.226-.2.5-0.369,0.669-0.033a5.629,5.629,0,0,1,.935,2.592,1.536,1.536,0,0,0,0,.175c0.039,0.391-.5.937,0.156,1.147a1.553,1.553,0,0,0,1.979-.849,1.8,1.8,0,0,1,.381-0.7,0.942,0.942,0,0,1,.743-0.231,7.266,7.266,0,0,1,1.5.767c0.65,0.424,1.249.924,1.89,1.362a1.525,1.525,0,0,0,2.021.012c-0.377-.449-0.764-0.887-1.123-1.349a2.347,2.347,0,0,1-.236-0.544,2.366,2.366,0,0,1,.549-0.2,15.753,15.753,0,0,1,1.676-.119,1.959,1.959,0,0,1,1.768.919c0.282,0.436.615,0.839,0.933,1.268,0.117-.152.231-0.312,0.357-0.462,0.69-.825,1.206-0.851,1.952-0.016,0.542,0.607,1,1.291,1.518,1.918A2.557,2.557,0,0,0,154.219,173c-0.28-.624-0.508-1.192-0.784-1.735a3.414,3.414,0,0,1-.068-2.049,0.689,0.689,0,0,1,.547-0.155c1.124,0.324,2.239.679,3.351,1.046a3.366,3.366,0,0,1,.759.39,0.772,0.772,0,0,0,1.172-.166c0.272-.336.552-0.686,0.021-1.067a0.932,0.932,0,0,1-.314-0.48,0.57,0.57,0,0,1,.1-0.452,0.645,0.645,0,0,1,.412.067c0.48,0.179.947,0.394,1.432,0.556,1.13,0.377,2.267.732,3.529,1.137a10.542,10.542,0,0,1-.158-1.391,1.42,1.42,0,0,1,.262-0.964,1.035,1.035,0,0,1,.927.12,5.079,5.079,0,0,0,2.785.839c0.792,0.034,1.584.075,2.509,0.12-0.231-.544-0.425-1-0.616-1.453-0.3-.71-0.218-1.159.345-1.368a1.051,1.051,0,0,1,.877.1,4.127,4.127,0,0,1,1.763,2.93,1.783,1.783,0,0,0,1.485-2.506,1.987,1.987,0,0,1-.012-0.7l0.213-.137c1.2,0.612,2.4,1.219,3.588,1.844a3.652,3.652,0,0,1,.412.392,0.7,0.7,0,0,0,.94.142,0.528,0.528,0,0,0,.154-0.833,6.134,6.134,0,0,1-.548-1.078,2.275,2.275,0,0,1-.032-0.7,1.324,1.324,0,0,1,.58.188,7.742,7.742,0,0,0,2.686,1.508c0.411,0.21.815,0.434,1.226,0.654a6.353,6.353,0,0,1,.879-1.043,11.14,11.14,0,0,1,1.731-1.094c0.381-.2.477,0.154,0.575,0.438a1.021,1.021,0,0,0,1.4.88,0.849,0.849,0,0,0,.693-1.175c-0.082-.37-0.17-0.739-0.256-1.109l0.15-.142a18.073,18.073,0,0,0,1.933,1.073,19.665,19.665,0,0,0,2.23.635v-2.6c0.841,0.573,1.537,1.063,2.25,1.527s1.443,0.9,2.287,1.43a2.557,2.557,0,0,0,1.41-2.761,0.249,0.249,0,0,1-.009-0.058,1.859,1.859,0,0,1,.023-0.972,1.045,1.045,0,0,1,1.193-.063c0.63,0.237,1.268.459,1.914,0.649a0.574,0.574,0,0,0,.832-0.583c0.032-.419-0.049-0.846-0.06-1.27-0.006-.243.028-0.487,0.043-0.73a3.234,3.234,0,0,1,.691.114c0.771,0.3,1.534.629,2.291,0.967,0.357,0.159.552,0.114,0.587-.313,0.05-.615.126-1.229,0.173-1.844a1.333,1.333,0,0,1,1.13-1.375,2.568,2.568,0,0,0,1.107-.674c0.357-.342.174-0.716-0.294-0.887a3.385,3.385,0,0,1-.993-0.564,0.607,0.607,0,0,1-.093-0.589,2.846,2.846,0,0,1,.836-0.77,3.848,3.848,0,0,0,1.934-2.619,1.609,1.609,0,0,0-.013-0.8,0.763,0.763,0,0,0-.465-0.356,1.851,1.851,0,0,0-.515.041,0.584,0.584,0,0,1-.614-0.881c0.278-.613.645-1.184,0.949-1.786a3.152,3.152,0,0,0-.468-2.657,5.613,5.613,0,0,1-.691.484,0.53,0.53,0,0,1-.469.007,0.744,0.744,0,0,1-.107-0.472c0-.087.111-0.186,0.1-0.266a2.311,2.311,0,0,1,1.231-2.522,1.442,1.442,0,0,0,.159-1c-0.05-.93-1.016-1.3-1.33-2.082-0.162-.4-0.356-0.791-0.586-1.295-0.316,0-.78-0.016-1.241,0a2.032,2.032,0,0,1-1.414-.412c-0.328-.256-0.646-0.325-0.814.228a1.827,1.827,0,0,1-1.85.709c-0.309-.1-0.586-0.3-0.9-0.4a0.57,0.57,0,0,0-.493.056,2.334,2.334,0,0,0-.506,1.88,0.619,0.619,0,0,0,.368.3c0.736,0.292,1.5.527,2.217,0.851a3.093,3.093,0,0,1,2.11,3.132,1.088,1.088,0,0,1,.343-0.352,0.512,0.512,0,0,1,.427.129,24.519,24.519,0,0,0,.522,3c0.428,1.339-.237,2.01-1.241,2.579-1.155.654-2.3,1.331-3.478,1.937a16.188,16.188,0,0,1-5.946,1.389c-1.463.146-2.9,0.506-4.363,0.714-1.769.252-3.547,0.441-5.32,0.665-1.307.164-2.611,0.352-3.919,0.506-1.035.121-2.073,0.236-3.113,0.3-2.641.169-5.283,0.376-7.928,0.444-3.194.082-6.39,0.035-9.586,0.044-0.332,0-.664.009-1,0-0.852-.023-1.7-0.082-2.555-0.077-2.2.011-4.4,0.074-6.593,0.069-1.891,0-3.782-.081-5.673-0.107-1.378-.019-2.757-0.04-4.134,0-1.721.046-3.444,0.259-5.159,0.2-1.968-.066-3.928-0.347-5.891-0.54-1.91-.188-3.818-0.528-5.728-0.538-2.312-.012-4.591-0.283-6.876-0.516-2.3-.234-4.606-0.5-6.894-0.851-1.865-.287-3.706-0.727-5.559-1.092a29.711,29.711,0,0,1-5.523-1.5c-0.5-.2-0.975-0.477-1.474-0.687s-1.048-.388-1.566-0.6c-0.949-.38-1.906-0.747-2.834-1.174a1.807,1.807,0,0,1-.285-1.769c0.48,0.25.764,1.282,1.226,1.454,1.015,0.377,1.99.717,3,1.1,1.125,0.427,2.2.993,3.345,1.362,1.274,0.411,2.59.7,3.9,0.988,1.9,0.418,3.8.83,5.714,1.165,1.36,0.238,2.741.364,4.116,0.509,2.863,0.3,5.725.611,8.593,0.855,1.644,0.14,3.3.091,4.945,0.247,2.01,0.191,4,.569,6.013.749,1.355,0.121,2.729.054,4.094,0.041,2.065-.02,4.13-0.076,6.194-0.1,1.462-.017,2.925,0,4.388-0.006,2.727,0,5.455-.039,8.181,0,2.757,0.039,5.513.211,8.269,0.212,2.1,0,4.2-.175,6.3-0.273,1.4-.065,2.8-0.1,4.2-0.2,2.037-.149,4.071-0.333,6.1-0.526,1.565-.148,3.133-0.292,4.689-0.51,2.325-.326,4.639-0.723,6.96-1.076,1.287-.2,2.582-0.341,3.867-0.55a14.371,14.371,0,0,0,6.15-2.487c0.456-.327.987-0.548,1.459-0.855a0.835,0.835,0,0,0,.416-0.509c-0.128-1.091.11-2.23-.4-3.27a4.567,4.567,0,0,0-.345-0.5,10.748,10.748,0,0,1-.433,1.042,10.523,10.523,0,0,1-3.087,3.2,8.73,8.73,0,0,1-4.6,1.464c-2.655.262-5.321,0.408-7.98,0.632-1.918.162-3.829,0.45-5.75,0.539-2.643.123-5.294,0.055-7.937,0.172-3.831.17-7.658,0.449-11.488,0.648-2.174.113-4.351,0.171-6.528,0.236-2.975.089-5.953,0.117-8.926,0.252a88.12,88.12,0,0,1-10.682-.189c-2.6-.2-5.205-0.36-7.811-0.467-2.271-.094-4.55-0.029-6.82-0.148-1.662-.087-3.313-0.371-4.972-0.546-0.755-.08-1.514-0.113-2.272-0.162a73.068,73.068,0,0,1-9.49-.755c-1.257-.247-2.474-0.692-3.717-1.018-0.978-.256-1.964-0.483-2.953-0.694a9.789,9.789,0,0,1-3.729-1.268c-0.574-.4-1.12-0.839-1.684-1.253A3.932,3.932,0,0,0,93.72,146.471Z" transform="translate(-85.293 -39.405)"/><path d="M154.739,137.037c0.17,1.312.359,2.551,0.481,3.8,0.061,0.624-.1,1.277.013,1.886a5.708,5.708,0,0,1-.536,3,1.432,1.432,0,0,1-1.066.9,21.568,21.568,0,0,1-2.748.711c-0.98.115-1.908,0.91-2.958,0.291a0.254,0.254,0,0,0-.114.017c-1.313.15-2.623,0.329-3.939,0.442-2.09.179-4.182,0.393-6.277,0.445-1.963.048-3.931-.1-5.9-0.155-2.005-.056-4.01-0.141-6.016-0.146-2.2-.006-4.406.186-6.6,0.064-1.935-.108-3.853-0.529-5.778-0.812-2.619-.385-5.239-0.765-7.857-1.158-0.635-.1-1.26-0.252-1.895-0.349a8.659,8.659,0,0,1-4.879-1.87,0.924,0.924,0,0,0-.67-0.285c-1.218.317-2.433,0.656-3.622,1.065-0.7.241-.729,0.787-0.121,1.209a17.348,17.348,0,0,0,1.56,1.028,10.766,10.766,0,0,0,2.09.967c2,0.578,4.027,1.068,6.043,1.592,0.659,0.171,1.314.363,1.979,0.508,3.258,0.708,6.59.532,9.884,0.8,0.679,0.056,1.362.074,2.04,0.139,1.915,0.183,3.828.389,5.743,0.57,0.387,0.037.78,0.006,1.17,0,0.97-.006,1.942-0.059,2.91-0.011,2.081,0.1,4.159.262,6.239,0.39,1.012,0.062,2.024.11,3.037,0.159,2.6,0.127,5.209.351,7.814,0.35,2.82,0,5.639-.214,8.459-0.334,0.747-.032,1.493-0.087,2.24-0.088,1.711,0,3.424.094,5.131,0.023,1.922-.079,3.837-0.331,5.759-0.445,1.826-.108,3.657-0.127,5.486-0.2,2.218-.09,4.436-0.209,6.654-0.294,2.549-.1,5.1-0.124,7.648-0.275,1.94-.115,3.87-0.387,5.807-0.565,0.537-.049,1.085.026,1.622-0.027q1.826-.181,3.644-0.438a9.121,9.121,0,0,0,3.351-.925,9.92,9.92,0,0,0,3.085-2.619c0.863-1.147,1.087-1.954.107-3.031a6.2,6.2,0,0,0-3.439-1.7c-0.29.741-.523,1.463-0.848,2.14a3.2,3.2,0,0,1-2.241,1.857,1.773,1.773,0,0,1-.686-0.031,6.231,6.231,0,0,0-1.08-.248c-1.066,0-2.132.061-3.2,0.108-1.784.079-3.567,0.187-5.352,0.243-1.947.062-3.9,0.127-5.842,0.1a45.218,45.218,0,0,1-7.04-.506,30.638,30.638,0,0,1-6.353-1.629c-1.438-.575-2.892-1.111-4.326-1.7a22.425,22.425,0,0,1-3.124-1.394c-1.761-1.058-3.44-2.252-5.155-3.386A3.829,3.829,0,0,0,154.739,137.037Z" transform="translate(-85.293 -39.405)"/><path d="M182.54,121.6l-0.115.122a2.4,2.4,0,0,1-.49-0.356,2.712,2.712,0,0,0-2.379-.859,8.292,8.292,0,0,1-2.089-.245,12.957,12.957,0,0,1-1.388-.423c-1.609-.443-3.215-0.9-4.834-1.3a27.578,27.578,0,0,0-3.754-.779c-1.554-.161-3.129-0.118-4.7-0.168-1.137-.037-2.275-0.136-3.41-0.112a20.152,20.152,0,0,0-5.943,1.069c-0.843.28-1.773,0.318-2.594,0.641a28.071,28.071,0,0,0-2.9,1.479,1.549,1.549,0,0,0-.8,1.607,4.976,4.976,0,0,0,1.734,3.024c0.771,0.679,1.618,1.271,2.422,1.912a29.183,29.183,0,0,0,7.122,4.012c1.916,0.794,3.823,1.612,5.745,2.391,1.7,0.691,3.414,1.373,5.142,2,0.928,0.336,1.9.55,2.855,0.813a24.251,24.251,0,0,0,3.2.845c1.919,0.253,3.858.389,5.793,0.488,1.807,0.093,3.624.16,5.429,0.081,1.665-.072,3.322-0.341,4.98-0.545,1.808-.222,3.621-0.424,5.417-0.723a1.287,1.287,0,0,0,1.248-1.692,8.778,8.778,0,0,0-2.565-4.559c-1.429-1.361-2.961-2.622-4.513-3.843-1.293-1.016-2.682-1.91-4.026-2.86-0.506-.358-0.987-0.756-1.514-1.08-1.058-.65-2.135-1.271-3.215-1.885-0.342-.194-0.718-0.329-1.079-0.49C181.668,120.733,182.338,120.973,182.54,121.6Z" transform="translate(-85.293 -39.405)"/><path d="M146.6,121.656a1.5,1.5,0,0,0-.378.186c-0.525.568-1.067,1.123-1.552,1.724a3.71,3.71,0,0,0-.259,3.922c0.89,1.69,2.534,2.595,3.857,3.834a12.888,12.888,0,0,0,1.222.988c0.924,0.674,1.866,1.322,2.792,1.993,1.1,0.8,2.173,1.635,3.295,2.4,1.2,0.822,2.493,1.524,3.668,2.385a12.075,12.075,0,0,0,3.089,1.832c1.117,0.39,2.271.68,3.379,1.093a40.022,40.022,0,0,0,3.926,1.578,40.481,40.481,0,0,0,6.739,1.28c3.014,0.24,6.057.137,9.087,0.161,1.324,0.01,2.65-.005,3.974-0.054,2.171-.08,4.311-0.634,6.5-0.414,0.3,0.031.638-.068,0.747,0.37a0.374,0.374,0,0,0,.336.1,4.061,4.061,0,0,0,1.349-.759,12.679,12.679,0,0,0,1.128-1.889,4.036,4.036,0,0,0,.045-1.232,4.588,4.588,0,0,0,.141-2.677,25.169,25.169,0,0,0-.733-2.422,2.621,2.621,0,0,1-1.845,1.3c-2.021.288-4.043,0.574-6.071,0.8a55.789,55.789,0,0,1-5.809.493c-2.665.016-5.334-.142-8-0.315a14.567,14.567,0,0,1-4.2-.842c-1.107-.415-2.259-0.713-3.393-1.053a33.061,33.061,0,0,1-3.174-.95c-3.179-1.315-6.348-2.66-9.477-4.09a16.57,16.57,0,0,1-4.412-2.455c-0.514-.461-1.15-0.785-1.67-1.24-1.137-1-2.283-1.991-3.331-3.078A4.408,4.408,0,0,1,146.6,121.656Z" transform="translate(-85.293 -39.405)"/><path d="M179.149,119.457l-0.06.217,1.827,0.472,0.05-.182Z" transform="translate(-85.293 -39.405)"/><path d="M96.976,196.636a2.972,2.972,0,0,0,2.328.315,1.723,1.723,0,0,1,.73.056,0.745,0.745,0,0,0,.947-0.337,0.457,0.457,0,0,1,.834-0.128,1.108,1.108,0,0,0,1.194.346c0.262-1.048.472-1.115,1.353-.454,0.311,0.233.619,0.471,0.949-.029a0.56,0.56,0,0,1,.816-0.155c0.23,0.142.465,0.276,0.69,0.425,0.35,0.233.654,0.483,0.962-.1a0.484,0.484,0,0,1,.826-0.06,0.609,0.609,0,0,0,1.058-.016,0.8,0.8,0,0,1,.488-0.25,9.95,9.95,0,0,1,1.52,0,3.284,3.284,0,0,0,.718.25c0.2-.058.268-0.522,0.464-0.583a1.6,1.6,0,0,1,.971.053,1.061,1.061,0,0,0,1.067-.089,0.923,0.923,0,0,1,1.35.086,0.58,0.58,0,0,0,.514.076,3.047,3.047,0,0,0,.74-0.415,1.058,1.058,0,0,1,1.289-.019,0.859,0.859,0,0,0,1.236-.047,2.93,2.93,0,0,1,1.325-.6,1.355,1.355,0,0,1,.933.208,0.72,0.72,0,0,0,.836.077,1.509,1.509,0,0,1,1.771-.029,1.776,1.776,0,0,0,1.775-.066,2.033,2.033,0,0,1,2.045-.175,1.975,1.975,0,0,0,1.243.062,9.1,9.1,0,0,1,3.495,0,3.387,3.387,0,0,0,1.022-.164,1.893,1.893,0,0,1,.507-0.055q2.452,0.283,4.9.589a1.494,1.494,0,0,1,.387.1,1.144,1.144,0,0,0,1.426-.25,0.375,0.375,0,0,1,.668.017,0.565,0.565,0,0,0,.983.005,0.713,0.713,0,0,1,.5-0.072,10.994,10.994,0,0,0,1.233.149,7.156,7.156,0,0,0,1.539-.2c1-.248,2.077.15,3.035-0.4a0.465,0.465,0,0,1,.393-0.015,1.679,1.679,0,0,0,1.612,0,1.085,1.085,0,0,1,.829.165,0.809,0.809,0,0,0,1.209-.069,1.006,1.006,0,0,1,1.286-.2,0.543,0.543,0,0,0,.5-0.02,0.958,0.958,0,0,1,1.274-.079c0.185,0.1.366,0.209,0.546,0.318a0.529,0.529,0,0,0,.769,0,2.61,2.61,0,0,1,.873-0.6,0.782,0.782,0,0,1,.71.132c0.418,0.526.8,0.275,1.134-.013a0.78,0.78,0,0,1,1.139.016,0.72,0.72,0,0,0,.561.18,2.22,2.22,0,0,1,1.639.026,0.929,0.929,0,0,0,.332.083,1.7,1.7,0,0,1,1.528.169,0.471,0.471,0,0,0,.371-0.058,1.46,1.46,0,0,1,2.063.135,0.692,0.692,0,0,0,.567.006,1.794,1.794,0,0,1,1.567-.009,1.492,1.492,0,0,0,.672-0.141,0.792,0.792,0,0,0,.473.12,1.8,1.8,0,0,1,1.9.179c0.738-.778.742-0.783,1.592-0.089a0.441,0.441,0,0,0,.652.022,1.554,1.554,0,0,1,2.152.059,1.736,1.736,0,0,1,2.277-.532,1.052,1.052,0,0,0,.45-0.067,1.448,1.448,0,0,1,.68-0.072,3.821,3.821,0,0,0,2.193.087,10.127,10.127,0,0,1,1.7.115,0.594,0.594,0,0,0,.438-0.114c0.226-.665.855-0.38,1.28-0.551a0.931,0.931,0,0,1,.5.245,0.862,0.862,0,0,0,1.046.016,2.566,2.566,0,0,1,1.162-.205c0.606-.036,1.214-0.027,1.822-0.033a4,4,0,0,1,1.52.025,7.076,7.076,0,0,0,4.156.232,0.592,0.592,0,0,1,.276-0.049c1.067,0.592,2.406.323,3.423,1.1a1.927,1.927,0,0,0,.784.165,0.756,0.756,0,0,1,.335.048c0.7,0.726,1.887.7,2.466,1.614a0.611,0.611,0,0,0,.407.294,0.761,0.761,0,0,1,.769.781c0.184,0.627.265,1.29,0.491,1.9a3.609,3.609,0,0,1,.192,1.942,10.008,10.008,0,0,0,.252,2.042,10.73,10.73,0,0,1-.078,1.887,9.09,9.09,0,0,0,.029,2.436,8.213,8.213,0,0,1-.183,2.054,0.956,0.956,0,0,0-.086.318,1.356,1.356,0,0,1-.024,1.3,2.725,2.725,0,0,0,.055.931,0.669,0.669,0,0,1-.128.442,3.947,3.947,0,0,0-1.075,1.032c-0.329.959-1.154,0.838-1.824,1.051a18.3,18.3,0,0,0-1.952.521,6.943,6.943,0,0,1-2.95.323,2.487,2.487,0,0,1-1.786-.185,0.722,0.722,0,0,0-.438.21,0.88,0.88,0,0,1-1.161.093,0.621,0.621,0,0,0-.907.032,0.5,0.5,0,0,1-.427.138c-0.959-.459-1.872.246-2.816,0.091a1.168,1.168,0,0,0-.492.136,2.216,2.216,0,0,1-.869.289,17.352,17.352,0,0,0-2.465.266,1.092,1.092,0,0,0-.377.11,1.324,1.324,0,0,1-.479.188c-1.237-.13-2.464.638-3.713,0.028a1.742,1.742,0,0,0-.683.072,7.522,7.522,0,0,1-1.587.037,2.514,2.514,0,0,0-1.5,0,4.721,4.721,0,0,1-1.436.138c-0.531.035-1.063,0.068-1.594,0.089-0.31.013-.621,0-0.932,0-0.278.006-.556,0.017-0.833,0.042a7.854,7.854,0,0,0-1,.124,1.306,1.306,0,0,0-.6.275c-0.839.783-1.125,0.813-2.064,0.173a0.509,0.509,0,0,0-.356-0.111,1.079,1.079,0,0,1-1.187-.007,1.757,1.757,0,0,0-1.418.228,2.007,2.007,0,0,1-1.107.206,4.97,4.97,0,0,1-1.14-.318,1.628,1.628,0,0,0-1.318.557,0.548,0.548,0,0,1-.317.258c-0.729.02-1.459,0-2.188,0.009a9,9,0,0,0-.975.1,4.982,4.982,0,0,1-.858.117,1.222,1.222,0,0,0-1.092.366,0.8,0.8,0,0,1-.667.161,3.27,3.27,0,0,1-1.059-.46,0.884,0.884,0,0,0-1.081-.013,1.283,1.283,0,0,1-1.469.037,0.854,0.854,0,0,0-1.112.08,1.115,1.115,0,0,1-1.392.068,1.257,1.257,0,0,0-1.391-.11,1.286,1.286,0,0,1-.542.037c-0.762.056-1.524,0.135-2.287,0.167a4.2,4.2,0,0,1-1.535-.069,1.979,1.979,0,0,0-1.385-.133,0.138,0.138,0,0,1-.058,0,5.576,5.576,0,0,0-2.9.276c-0.541.226-1.33-.221-2.014,0.116a1.97,1.97,0,0,1-.578-0.2,0.772,0.772,0,0,0-.563.069,1.708,1.708,0,0,1-1.511.411c-0.61-.075-1.213-0.214-1.82-0.317a0.444,0.444,0,0,0-.283.025,1.988,1.988,0,0,1-1.993.052,0.5,0.5,0,0,0-.37-0.035c-0.536.782-1.258,0.221-1.878,0.246a9.894,9.894,0,0,1-2.246-.24,5.223,5.223,0,0,1-1.537-.009,0.112,0.112,0,0,0-.1.018c-0.332.622-.775,0.193-1.188,0.141-0.612-.078-1.227-0.145-1.843-0.162-0.67-.018-1.341.029-2.012,0.042-0.265.005-.529,0-0.794-0.006q-0.644-.013-1.287-0.035a0.935,0.935,0,0,0-.112-0.031,2.985,2.985,0,0,1-1.915-.149,0.259,0.259,0,0,0-.227.015c-0.833.6-1.669,0.161-2.5,0.017a0.452,0.452,0,0,0-.171-0.03,3.476,3.476,0,0,1-2.236-.314,3.164,3.164,0,0,0-1,.223,1.23,1.23,0,0,1-.792-0.147,0.9,0.9,0,0,0-1.02-.117,1,1,0,0,1-1.179-.1,1.249,1.249,0,0,0-.746-0.144,1.616,1.616,0,0,1-1.267-.246,1.706,1.706,0,0,0-.84-0.065c-0.5-.031-1.007-0.09-1.511-0.089a2.066,2.066,0,0,0-.822.162,0.869,0.869,0,0,1-1.11,0,0.346,0.346,0,0,0-.267-0.076c-0.6.119-1.187,0.257-1.781,0.381a1.972,1.972,0,0,1-.511.06c-0.507-.03-1.015-0.133-1.52-0.117a2.028,2.028,0,0,1-2.127-2.03c0.051-.71-0.514-1.044-0.742-1.574a2.138,2.138,0,0,1-.329-1.124,3.917,3.917,0,0,0-.2-1.383c-0.066-1.057-.665-2.068-0.278-3.165a0.964,0.964,0,0,0-.033-0.4,3.945,3.945,0,0,1-.147-1.343,5.569,5.569,0,0,0-.087-2.44,3.569,3.569,0,0,1-.093-0.861,0.739,0.739,0,0,1,.254-0.542,0.875,0.875,0,0,0,.319-1.121c-0.048-.44-0.13-0.877-0.208-1.314a0.809,0.809,0,0,0-.14-0.428,1.081,1.081,0,0,1,.027-1.482,20.1,20.1,0,0,1,1.169-1.854,0.629,0.629,0,0,1,.325-0.3C96.439,198.06,96.69,197.384,96.976,196.636Zm3.741,22.332a1.054,1.054,0,0,1,1.3-.248,3.508,3.508,0,0,0,1.312-.055,4.418,4.418,0,0,1,.513-0.058c2.637,0.121,5.275.238,7.911,0.38q2.644,0.142,5.285.344c1.783,0.134,3.562.369,5.347,0.433,1.646,0.06,3.3-.092,4.946-0.065a25.353,25.353,0,0,1,2.662-.056c1.232,0.147,2.487.1,3.732,0.136a11.084,11.084,0,0,0,1.194-.01c0.973-.081,2.015.317,2.9-0.415a0.815,0.815,0,0,1,.438.033,6.879,6.879,0,0,0,1.516.148,2.628,2.628,0,0,1,1.075-.049,1.479,1.479,0,0,0,1.205-.2,0.807,0.807,0,0,1,1.031-.125,1.346,1.346,0,0,0,1.523-.117,0.387,0.387,0,0,1,.263-0.053,12.067,12.067,0,0,0,1.232.107c2.589-.071,5.178-0.189,7.768-0.239,1.7-.033,3.395-0.013,5.091.044,1.842,0.062,3.693.287,5.362-.8a0.985,0.985,0,0,1,.5-0.014c0.415,0.017.831,0.069,1.245,0.055,0.5-.016,1.008-0.088,1.512-0.131,1.234-.107,2.47-0.2,3.7-0.321,1.041-.1,2.077-0.288,3.12-0.344,0.919-.05,1.845.059,2.767,0.041a27.075,27.075,0,0,1,3.537-.187,12.405,12.405,0,0,0,1.439-.108,13.257,13.257,0,0,0,1.445.069c0.423-.053.992,0.181,1.251-0.431a0.487,0.487,0,0,1,.389.038,0.767,0.767,0,0,0,.9.2,4.463,4.463,0,0,0,1.028-.162,4.986,4.986,0,0,1,1.854-.309,11.77,11.77,0,0,1,1.391-.386c1.093,0.237,2.007-.436,3.04-0.416a16.4,16.4,0,0,0,2.024-.125,6.805,6.805,0,0,0,.962-0.239,1.711,1.711,0,0,1,.557.252,1.47,1.47,0,0,0,.893.137c0.479-.66.966-0.308,1.446-0.1,1.191,0.523,1.1.237,1.4-.536a0.665,0.665,0,0,1,.174-0.122c0.682,0.7,1.314.325,1.927-.2a0.079,0.079,0,0,1,.054-0.021,1.258,1.258,0,0,0,1.355-.424,2.289,2.289,0,0,0,.476-0.677,5.107,5.107,0,0,0,.259-1,10.956,10.956,0,0,0,.181-2c-0.047-.88-0.235-1.753-0.359-2.629-0.1-.675.414-1.393-0.144-2.044a0.4,0.4,0,0,1,.122-0.306c0.838-.776.71-1.838,0.719-2.793a29.143,29.143,0,0,0-.334-3.48,1.372,1.372,0,0,0-.99-1.333,3.46,3.46,0,0,0-.691-0.858,8.609,8.609,0,0,0-1.5-.622c-1.08-.375-2.276-0.137-3.345-0.678a1.451,1.451,0,0,0-1.771-.126,0.485,0.485,0,0,1-.21-0.055,2.812,2.812,0,0,0-.731-0.157c-0.462.021-.919,0.152-1.381,0.166-1.493.045-2.987,0.069-4.48,0.081-2.3.019-4.6,0.023-6.906,0.03-0.25,0-.5-0.036-0.75-0.032-0.7.01-1.4,0.083-2.1,0.04a15.6,15.6,0,0,0-4.7.124,0.673,0.673,0,0,1-.277-0.034,2.284,2.284,0,0,0-.763-0.159,17.489,17.489,0,0,1-5.046-.016,3.944,3.944,0,0,1-1.053.03,2.051,2.051,0,0,0-2.1-.072,0.447,0.447,0,0,1-.379-0.059c-0.756-.516-1.667-0.129-2.473-0.439a2.737,2.737,0,0,0-1.111.145,2.025,2.025,0,0,1-.451-0.019,2.952,2.952,0,0,0-1-.094,7.974,7.974,0,0,1-2.137.172c-0.4,0-.791.189-1.187,0.193-0.771.008-1.545-.1-2.314-0.07a4.318,4.318,0,0,0-1.567.339,1.333,1.333,0,0,1-.98.04,7.769,7.769,0,0,0-1.229-.231c-0.5-.044-1.007-0.011-1.51-0.036a1.492,1.492,0,0,0-1.249.285,0.577,0.577,0,0,1-.882-0.071,0.552,0.552,0,0,0-.869-0.078,1.108,1.108,0,0,1-1.115.3,11.024,11.024,0,0,0-1.379-.183,2.512,2.512,0,0,0-1.255.279,0.81,0.81,0,0,1-.834.08,3.319,3.319,0,0,0-1-.091,5.46,5.46,0,0,1-.925.035,1.586,1.586,0,0,0-1.389.125,0.649,0.649,0,0,1-.617-0.029,2.869,2.869,0,0,0-2.538-.351,0.892,0.892,0,0,1-.627-0.139,0.921,0.921,0,0,0-1.333.081,0.9,0.9,0,0,1-.8.136,1.741,1.741,0,0,0-1.533-.254l-4.829.172c-1.1.04-2.211,0.03-3.308,0.135-1.136.109-2.259,0.358-3.394,0.492-0.6.07-1.217-.049-1.806,0.044a28.915,28.915,0,0,1-6.5.62c-1.135-.078-2.229.222-3.369,0.175-1.839-.077-3.687.037-5.53,0.107a39.88,39.88,0,0,0-4.818.31A8.821,8.821,0,0,0,95.748,199a0.374,0.374,0,0,0-.1.141,5.372,5.372,0,0,0-.575,3.46,41.02,41.02,0,0,1-.03,4.25c-0.033,1.435-.09,2.869-0.139,4.3a3.8,3.8,0,0,1-.068,1.146c-0.367.994-.32,1.215,0.535,1.633a0.549,0.549,0,0,1,.237.3c0.179,0.553.334,1.113,0.5,1.669a4.394,4.394,0,0,0,.542,1.57,1.2,1.2,0,0,1,.424,1.044,3.553,3.553,0,0,1,1.077.25,1.249,1.249,0,0,0,1.323.108A0.817,0.817,0,0,1,100.717,218.969Zm-5.807-13.9-0.188-.119a1.661,1.661,0,0,0-.523.445,1.887,1.887,0,0,0,.586,1.649Zm1.009,11.086L95.389,214.6l-0.237-.019a2.166,2.166,0,0,0-.147.771A0.874,0.874,0,0,0,95.919,216.158Zm74.694,1.976-0.081.208a1.93,1.93,0,0,0,.789.255,2.275,2.275,0,0,0,.748-0.468l-0.09-.169Zm-48.491-22.36a0.926,0.926,0,0,0-1.577.26Zm34.8,23.41-0.077.232a4.681,4.681,0,0,0,.91.354,1.586,1.586,0,0,0,.544-0.453Zm-5.477.083c0.635,0.686.843,0.682,1.105,0h-1.105Zm-56.8-11.21a0.876,0.876,0,0,0,0,1.419v-1.419Zm90.033-12.716a0.885,0.885,0,0,0-1.4-.092Zm8.636-.695-1.173-.248C192.857,195.15,192.893,195.157,193.32,194.646Zm-98.672,7.18L94.9,201.7l-0.265-.653-0.353.214Zm10.8-4.822,1.127-.091C106.079,196.481,105.817,196.494,105.448,197Z" transform="translate(-85.293 -39.405)"/><path d="M85.293,90.053c0.141-.675.271-1.184,0.353-1.7,0.295-1.871.52-3.754,0.876-5.613a27.016,27.016,0,0,1,1.02-3.79q1.008-2.9,2.2-5.725a22.885,22.885,0,0,1,2.9-5.324c0.729-.93,1.473-1.849,2.2-2.782,0.284-.366.5-0.787,0.805-1.134,1.018-1.163,2.083-2.284,3.09-3.456A51.927,51.927,0,0,1,107.3,53.2a57.522,57.522,0,0,1,5.351-3.375,43.743,43.743,0,0,1,5.134-2.8,59.476,59.476,0,0,1,6.623-2.238c1.756-.508,3.573-0.807,5.361-1.206,2.184-.487,4.356-1.034,6.552-1.458,2.412-.465,4.844-0.831,7.27-1.219,1.753-.281,3.509-0.549,5.269-0.783,1.018-.135,2.048-0.179,3.071-0.284,1.235-.127,2.464-0.329,3.7-0.4,1.184-.068,2.376-0.007,3.564-0.007,0.574,0,1.148-.02,1.722-0.007,0.738,0.017,1.476.05,2.213,0.091,1.164,0.064,2.332.1,3.491,0.219,1.908,0.193,3.81.441,5.715,0.668a33.639,33.639,0,0,1,6.03,1.644c1.082,0.339,2.22.494,3.312,0.805a38.056,38.056,0,0,1,8.312,3.509,33.505,33.505,0,0,1,6.26,4.5c1.024,0.942,2.21,1.709,3.23,2.656,1.253,1.162,2.421,2.416,3.6,3.652a18.766,18.766,0,0,1,2.618,4.025c0.224,0.4.612,0.714,0.819,1.121,0.9,1.77,1.794,3.544,2.626,5.347,0.727,1.575,1.41,3.173,2.034,4.792,0.861,2.233,1.641,4.5,2.472,6.743a5.9,5.9,0,0,1,.221,2.176,0.393,0.393,0,0,1-.157.278c-0.986.64-1.972,1.283-2.975,1.9-0.942.576-1.876,1.176-2.863,1.664-1.717.848-3.476,1.612-5.212,2.423-1.875.876-3.734,1.787-5.618,2.641-1.973.894-3.972,1.733-5.954,2.609-0.936.413-1.843,0.893-2.791,1.276-0.877.354-1.791,0.615-2.687,0.924-1.222.422-2.43,0.887-3.663,1.269-1.9.588-3.8,1.153-5.72,1.671-1.6.433-3.217,0.818-4.839,1.165a37.308,37.308,0,0,1-8.923.989,39.292,39.292,0,0,0-4.7.4c-1.37.127-2.738,0.282-4.11,0.375-1.7.115-3.4,0.167-5.1,0.27-1.5.09-3.006,0.2-4.506,0.325-1.408.121-2.81,0.327-4.22,0.413-1.284.078-2.574,0.04-3.861,0.061s-2.556.131-3.826,0.063q-3.1-.168-6.195-0.529c-2.242-.261-4.475-0.608-6.707-0.951-1.833-.281-3.655-0.627-5.488-0.91-1.243-.192-2.5-0.292-3.741-0.494-1.177-.192-2.344-0.449-3.511-0.7-2.473-.534-4.962-1.011-7.409-1.65a56.13,56.13,0,0,1-6.341-2.006,39.691,39.691,0,0,1-4.685-2.413,17.49,17.49,0,0,1-2.245-1.534A2.752,2.752,0,0,1,85.293,90.053Zm80.745,9.183V99.195a6.113,6.113,0,0,0,.99-0.008c1.3-.216,2.6-0.432,3.89-0.705,1.91-.406,3.827-0.8,5.71-1.311,2.151-.585,4.292-1.228,6.394-1.97,2.427-.857,4.813-1.833,7.2-2.79,1.714-.686,3.424-1.387,5.1-2.153,2.579-1.176,5.09-2.51,7.7-3.6a61.22,61.22,0,0,0,9.988-5.527,0.508,0.508,0,0,0,.251-0.295,4.441,4.441,0,0,0-.157-1.2c-0.8-2.316-1.591-4.633-2.454-6.924-0.445-1.181-1.032-2.308-1.55-3.462-0.827-1.844-1.6-3.717-2.5-5.524-0.56-1.123-1.353-2.127-1.979-3.22a21.651,21.651,0,0,0-3.884-4.941c-1.548-1.471-3.247-2.785-4.9-4.14a36.517,36.517,0,0,0-3.688-2.862c-1.863-1.162-3.822-2.177-5.785-3.169a22.528,22.528,0,0,0-3.461-1.39c-2-.623-4.044-1.13-6.065-1.7-0.767-.216-1.515-0.5-2.287-0.7a48.289,48.289,0,0,0-9.255-1.179c-3.284-.177-6.58-0.29-9.866-0.21a69.4,69.4,0,0,0-7.327.739c-2.683.353-5.36,0.773-8.027,1.237-3.106.541-6.211,1.1-9.292,1.764q-4.137.889-8.218,2.036a29.855,29.855,0,0,0-4.758,1.745c-1.9.9-3.708,1.983-5.523,3.045a49.978,49.978,0,0,0-4.85,3.039c-2.271,1.707-4.417,3.583-6.608,5.4a17.349,17.349,0,0,0-1.473,1.325c-0.565.588-1.074,1.231-1.611,1.846-0.715.819-1.453,1.618-2.143,2.456-0.479.582-.843,1.262-1.346,1.819a22.72,22.72,0,0,0-3.361,5.1,46.014,46.014,0,0,0-2.963,7.333,35.13,35.13,0,0,0-1.032,3.7c-0.4,2.115-.615,4.263-1.011,6.378a1.082,1.082,0,0,0,.519,1.309q1.453,0.914,2.909,1.825a23.765,23.765,0,0,0,6.32,2.817c3.822,1.035,7.7,1.877,11.55,2.794,0.6,0.144,1.21.284,1.822,0.379,1.267,0.2,2.541.352,3.809,0.539,1.288,0.19,2.573.408,3.861,0.6,1.345,0.2,2.7.358,4.039,0.564,2.052,0.316,4.09.774,6.153,0.957,2.416,0.215,4.852.239,7.28,0.275,1.94,0.029,3.885.015,5.822-.094,2.642-.149,5.276-0.417,7.915-0.613,1.826-.136,3.656-0.207,5.48-0.36,1.724-.145,3.442-0.362,5.163-0.543,1.255-.131,2.508-0.3,3.767-0.367C163.552,99.187,164.8,99.236,166.038,99.236Z" transform="translate(-85.293 -39.405)"/><path d="M209.473,235.1l-0.585-.124a2.547,2.547,0,0,0,.359,1.019,0.717,0.717,0,0,1,.219.735,12.2,12.2,0,0,0,.126,1.791c0.049,0.479.172,0.955,0.18,1.433q0.036,2.283.007,4.568c-0.023,1.8-.052,3.591-0.123,5.384a9.966,9.966,0,0,1-1.9,5.514,4.912,4.912,0,0,1-2.711,1.707A28.293,28.293,0,0,1,198,258.2c-1.682.075-3.352,0.378-5.031,0.533a19.42,19.42,0,0,1-4.942-.042,20.944,20.944,0,0,0-3.441-.154c-2.144.01-4.288,0.057-6.43,0.126-0.98.031-1.956,0.2-2.935,0.221-1.351.036-2.705-.038-4.056,0-1.277.038-2.553,0.151-3.828,0.251-1.19.093-2.375,0.266-3.566,0.308-2.336.082-4.675,0.121-7.013,0.134-3.1.018-6.193-.045-9.288,0-1.8.029-3.6,0.252-5.4,0.306-1.282.039-2.568-.044-3.851-0.1-1.416-.059-2.829-0.188-4.245-0.213-1.866-.034-3.733,0-5.6.012-3.763.033-7.526,0.084-11.289,0.112-2.15.016-4.3,0.049-6.45-.016-1.455-.044-2.9-0.321-4.358-0.359-1.727-.044-3.457.077-5.186,0.089a8.911,8.911,0,0,1-5.156-1.048,2.541,2.541,0,0,1-1.294-1.9c-0.067-.637-0.451-1.237-0.545-1.876a36.963,36.963,0,0,1-.37-3.728,36.582,36.582,0,0,0-.848-6.961,24.908,24.908,0,0,1-.424-3.142,27.427,27.427,0,0,1-.188-3.391c0.117,1.064.2,2.133,0.359,3.191,0.249,1.684.589,3.356,0.812,5.044,0.211,1.593.342,3.2,0.47,4.8a19.029,19.029,0,0,0,.9,5.472,3.4,3.4,0,0,0,1.118,1.939,6.794,6.794,0,0,0,.954.519c1.734,0.755,3.551.565,5.373,0.514s3.675,0.032,5.511.11c1.1,0.047,2.2.263,3.3,0.286,2.164,0.044,4.33.015,6.495,0s4.335-.043,6.5-0.073c1.986-.027,3.973-0.086,5.959-0.087q3.4,0,6.8.082c2.178,0.049,4.355.211,6.533,0.2,2.9-.014,5.8-0.173,8.7-0.22,2.625-.042,5.253.034,7.877-0.037,1.839-.05,3.674-0.267,5.512-0.4,0.776-.055,1.554-0.082,2.331-0.123,1.513-.079,3.025-0.188,4.539-0.226,0.99-.025,1.986.118,2.974,0.066,1.664-.088,3.321-0.313,4.986-0.4,1.323-.069,2.653-0.023,3.979-0.014,0.459,0,.917.041,1.375,0.072,1.181,0.079,2.361.194,3.543,0.236,1.023,0.037,2.051.035,3.073-.023s2.044-.2,3.065-0.318c1.155-.129,2.308-0.278,3.465-0.392,0.907-.089,1.836-0.051,2.725-0.223a32.88,32.88,0,0,0,4.206-1.051,4.53,4.53,0,0,0,2.674-2.987,14.127,14.127,0,0,0,.815-3.606c0.164-1.921.167-3.86,0.157-5.791a35.659,35.659,0,0,0-.4-6.413,16.99,16.99,0,0,1-.091-1.9,1.868,1.868,0,0,0-.166-0.507c-2.3.236-4.524,0.476-6.755,0.691-2.059.2-4.118,0.424-6.183,0.538-2.1.116-4.2,0.11-6.3,0.16-1.441.034-2.882,0.09-4.324,0.1-2.051.021-4.1-.011-6.153,0.024-2.763.047-5.524,0.16-8.287,0.2q-6.816.1-13.634,0.132c-1.506.005-3.013-.166-4.519-0.17-1.609,0-3.218.1-4.828,0.139-0.386.009-.774-0.078-1.161-0.073-2.181.03-4.363,0.124-6.544,0.1-2.54-.028-5.08-0.153-7.619-0.24-0.717-.025-1.434-0.059-2.15-0.1-1.183-.067-2.365-0.182-3.548-0.2-0.727-.011-1.456.171-2.185,0.181-2.114.03-4.23,0.049-6.344,0.011-2.383-.042-4.765-0.159-7.148-0.228-1.836-.053-3.672-0.083-5.508-0.123-1.6-.035-3.214-0.155-4.813-0.082-1.776.082-3.541,0.395-5.317,0.5a18.391,18.391,0,0,1-2.733-.216,0.541,0.541,0,0,1-.1-0.19,9.471,9.471,0,0,0,1.373.069c1.563-.147,3.118-0.438,4.683-0.487,2.579-.08,5.163-0.028,7.745,0,1.791,0.017,3.583.057,5.373,0.13,2.057,0.084,4.11.282,6.167,0.308,2.609,0.034,5.22-.08,7.83-0.082,2.038,0,4.086-.043,6.112.135,3.746,0.328,7.494.35,11.247,0.319,0.928-.008,1.854-0.08,2.782-0.1,1.761-.045,3.523-0.126,5.284-0.1,3.412,0.042,6.823.159,10.235,0.218q2.546,0.044,5.093-.016c1.275-.029,2.547-0.159,3.822-0.2,0.785-.022,1.573.078,2.36,0.069,1.186-.014,2.371-0.073,3.557-0.116,0.785-.028,1.57-0.081,2.356-0.09,1.436-.017,2.873,0,4.309-0.015,2.177-.03,4.354-0.067,6.53-0.128,2.07-.058,4.144-0.088,6.207-0.24,2.782-.2,5.558-0.5,8.333-0.785,1.38-.143,2.752-0.363,4.129-0.538a0.684,0.684,0,0,0,.707-0.851,3.7,3.7,0,0,1,.1-0.806A3.817,3.817,0,0,1,209.473,235.1Z" transform="translate(-85.293 -39.405)"/><path d="M98.177,132.854a8.841,8.841,0,0,0,3.892,2.027c1.212,0.438,2.423.9,3.666,1.224,1.73,0.458,3.477.87,5.239,1.181,2.335,0.412,4.689.716,7.038,1.047,0.806,0.114,1.624.14,2.428,0.261,1.105,0.167,2.2.4,3.3,0.58,1.333,0.214,2.665.488,4.008,0.57a47.311,47.311,0,0,0,4.99.021,60.823,60.823,0,0,0,6.814-.512,31.547,31.547,0,0,0,8.863-2.492c0.64-.308,1.2-0.778,1.839-1.092a3.282,3.282,0,0,1,1.043-.137,2.808,2.808,0,0,1-.562.848,22.134,22.134,0,0,1-8.733,3.126c-1.858.344-3.724,0.652-5.6,0.908-0.939.129-1.9,0.112-2.851,0.15-1.011.04-2.027,0.136-3.034,0.084-1.6-.082-3.193-0.21-4.777-0.42-2.357-.312-4.7-0.73-7.052-1.071-2.294-.333-4.6-0.567-6.888-0.951a30.626,30.626,0,0,1-6.738-1.6c-1.725-.713-3.522-1.255-5.238-1.988a6.372,6.372,0,0,1-1.579-1.315A0.9,0.9,0,0,1,98.177,132.854Z" transform="translate(-85.293 -39.405)"/><path d="M140.168,129.588c-1.188.95-2.315,1.857-3.454,2.748a0.756,0.756,0,0,1-.383.008,0.688,0.688,0,0,1-.064-0.119,2.4,2.4,0,0,0-.362-1.2,7.744,7.744,0,0,0-2.465-.731c-1.227-.131-2.494.054-3.709-0.131a5.96,5.96,0,0,0-2.8.357,0.966,0.966,0,0,0-.379.412c-0.3.458-.578,0.478-0.863,0.023a0.77,0.77,0,0,0-.755-0.49,1.079,1.079,0,0,1-.619-0.378,9.221,9.221,0,0,1-.81-0.915,0.534,0.534,0,0,1,.053-0.835,4.771,4.771,0,0,1,2.374-1,20.539,20.539,0,0,1,2.747-.337,17.855,17.855,0,0,1,4.717.228,26.386,26.386,0,0,1,6.259,2.04A3.839,3.839,0,0,1,140.168,129.588Zm-1.228.124c-0.266-.13-0.431-0.213-0.6-0.293a20.023,20.023,0,0,0-5.432-1.544,21.415,21.415,0,0,0-6.961.19,5.946,5.946,0,0,0-1.509.609,0.516,0.516,0,0,0-.2.381,10.59,10.59,0,0,0,.8.765l0.288-.7a1.712,1.712,0,0,1,.3.4c0.175,0.627.478,0.667,1.057,0.405a4.258,4.258,0,0,1,2.684-.518,12.047,12.047,0,0,0,3.483.216,6.129,6.129,0,0,1,3.039.585,1.108,1.108,0,0,1,.878,1.062,0.45,0.45,0,0,0,.138.073Z" transform="translate(-85.293 -39.405)"/><path d="M130.5,137.83c-1.485-.182-2.973-0.338-4.451-0.565a1.806,1.806,0,0,1-1.054-.55,1.285,1.285,0,0,1-.2-1.061,17.489,17.489,0,0,1,1.087-2.347,0.755,0.755,0,0,1,.58-0.335,9.25,9.25,0,0,1,1.944.255c1.091,0.3,2.139.774,3.239,1.023a5.145,5.145,0,0,0,1.861-.117,1.843,1.843,0,0,0,.379-0.509,0.726,0.726,0,0,1,.463-0.26c1.305,0.679,2.77.467,4.137,0.779a1.117,1.117,0,0,1,.479.2,1.014,1.014,0,0,1-.242.659,13.1,13.1,0,0,1-5.906,2.509c-0.769.083-1.538,0.154-2.308,0.231Zm7.148-2.984a1.933,1.933,0,0,0-.291-0.118c-0.876-.157-1.751-0.318-2.63-0.456a0.6,0.6,0,0,0-.423.112,3.478,3.478,0,0,1-3.528.365c-1.294-.4-2.62-0.693-3.93-1.039a0.512,0.512,0,0,0-.672.375c-0.18.429-.381,0.85-0.586,1.268-0.355.724-.2,1.116,0.6,1.226,1.168,0.161,2.344.3,3.521,0.359A13.417,13.417,0,0,0,137.648,134.846Z" transform="translate(-85.293 -39.405)"/><path d="M118.359,131.212c-0.508.075-1,.13-1.488,0.226a2.675,2.675,0,0,0-.563.252c0.177,0.319-.048.892,0.581,0.924a4.038,4.038,0,0,0,.643.006c0.51-.057.8,0.088,0.641,0.666l2.427,0.267a0.28,0.28,0,0,1,.115.013c0.317,0.217.632,0.438,0.947,0.658a4,4,0,0,1-.877.555,15.872,15.872,0,0,1-3.015.8,9.318,9.318,0,0,1-2.571-.286,7.756,7.756,0,0,1-1.538-.492,3.877,3.877,0,0,1-2.548-2.418,1.745,1.745,0,0,1,.524-1.692,3.989,3.989,0,0,1,2.011-1.428c1.033-.3,2.071-0.578,3.1-0.9a0.5,0.5,0,0,1,.7.392C117.744,129.552,118.036,130.346,118.359,131.212Zm-0.735-.312c-0.239-.635-0.4-1.154-0.637-1.641a0.564,0.564,0,0,0-.493-0.225,9.794,9.794,0,0,0-4.221,1.831,1.183,1.183,0,0,0-.27,1.858,3.736,3.736,0,0,0,1.251,1.085,16.443,16.443,0,0,0,3.06,1.08c1.348,0.31,2.605-.264,3.877-0.669a1.843,1.843,0,0,0-.7-0.174c-0.542-.048-1.084-0.085-1.625-0.142a0.436,0.436,0,0,1-.283-0.138c0.024-.674-0.489-0.544-0.868-0.581a0.827,0.827,0,0,1-.877-0.928,3.287,3.287,0,0,0-.135-0.859c-0.152-.573-0.064-0.706.539-0.665C116.66,130.761,117.078,130.832,117.625,130.9Z" transform="translate(-85.293 -39.405)"/><path d="M90.886,157.841c-0.434,1.819-.924,3.575-1.259,5.36-0.406,2.161-.722,4.342-0.994,6.524a23.622,23.622,0,0,0-.019,2.861c-0.3-.021-0.446-0.12-0.438-0.544a57.137,57.137,0,0,1,.779-6.378,24.732,24.732,0,0,0,.474-2.872,17.077,17.077,0,0,1,.763-3.342c0.054-.263.08-0.532,0.127-0.8A0.845,0.845,0,0,1,90.886,157.841Z" transform="translate(-85.293 -39.405)"/><path class="cls-6" d="M154.739,137.037a3.829,3.829,0,0,1,.343.186c1.715,1.135,3.394,2.328,5.155,3.386A22.425,22.425,0,0,0,163.361,142c1.434,0.585,2.888,1.121,4.326,1.7a30.638,30.638,0,0,0,6.353,1.629,45.218,45.218,0,0,0,7.04.506c1.947,0.023,3.9-.042,5.842-0.1,1.785-.057,3.568-0.164,5.352-0.243,1.065-.047,2.131-0.107,3.2-0.108a6.231,6.231,0,0,1,1.08.248,1.773,1.773,0,0,0,.686.031,3.2,3.2,0,0,0,2.241-1.857c0.325-.677.558-1.4,0.848-2.14a6.2,6.2,0,0,1,3.439,1.7c0.98,1.077.756,1.884-.107,3.031a9.92,9.92,0,0,1-3.085,2.619,9.121,9.121,0,0,1-3.351.925q-1.817.255-3.644,0.438c-0.536.053-1.085-.023-1.622,0.027-1.937.178-3.867,0.45-5.807,0.565-2.546.151-5.1,0.177-7.648,0.275-2.219.085-4.436,0.2-6.654,0.294-1.828.074-3.66,0.093-5.486,0.2-1.922.114-3.837,0.366-5.759,0.445-1.707.07-3.421-.024-5.131-0.023-0.747,0-1.493.056-2.24,0.088-2.82.12-5.639,0.333-8.459,0.334-2.6,0-5.209-.223-7.814-0.35-1.012-.049-2.025-0.1-3.037-0.159-2.08-.128-4.158-0.287-6.239-0.39-0.967-.048-1.94.005-2.91,0.011-0.39,0-.784.033-1.17,0-1.915-.181-3.828-0.386-5.743-0.57-0.678-.065-1.361-0.083-2.04-0.139-3.295-.269-6.626-0.093-9.884-0.8-0.665-.145-1.32-0.337-1.979-0.508-2.016-.524-4.042-1.014-6.043-1.592a10.766,10.766,0,0,1-2.09-.967,17.348,17.348,0,0,1-1.56-1.028c-0.608-.422-0.581-0.968.121-1.209,1.189-.409,2.4-0.748,3.622-1.065a0.924,0.924,0,0,1,.67.285,8.659,8.659,0,0,0,4.879,1.87c0.635,0.1,1.26.254,1.895,0.349,2.618,0.393,5.238.773,7.857,1.158,1.925,0.283,3.843.7,5.778,0.812,2.191,0.122,4.4-.07,6.6-0.064,2.005,0.006,4.011.09,6.016,0.146,1.966,0.055,3.934.2,5.9,0.155,2.095-.051,4.187-0.266,6.277-0.445,1.316-.113,2.626-0.292,3.939-0.442a0.254,0.254,0,0,1,.114-0.017c1.05,0.619,1.978-.176,2.958-0.291a21.568,21.568,0,0,0,2.748-.711,1.432,1.432,0,0,0,1.066-.9,5.708,5.708,0,0,0,.536-3c-0.11-.609.047-1.262-0.013-1.886C155.1,139.588,154.909,138.349,154.739,137.037Z" transform="translate(-85.293 -39.405)"/><path class="cls-5" d="M182.54,121.6c-0.2-.63-0.872-0.87-1.215-1.44,0.361,0.162.737,0.3,1.079,0.49,1.08,0.614,2.157,1.235,3.215,1.885,0.527,0.324,1.008.722,1.514,1.08,1.344,0.951,2.734,1.844,4.026,2.86,1.553,1.221,3.084,2.482,4.513,3.843a8.778,8.778,0,0,1,2.565,4.559,1.287,1.287,0,0,1-1.248,1.692c-1.8.3-3.609,0.5-5.417,0.723-1.658.2-3.315,0.473-4.98,0.545-1.806.079-3.622,0.012-5.429-.081-1.935-.1-3.874-0.235-5.793-0.488a24.251,24.251,0,0,1-3.2-.845c-0.954-.263-1.927-0.477-2.855-0.813-1.729-.626-3.438-1.308-5.142-2-1.922-.779-3.829-1.6-5.745-2.391a29.183,29.183,0,0,1-7.122-4.012c-0.8-.641-1.652-1.233-2.422-1.912a4.976,4.976,0,0,1-1.734-3.024,1.549,1.549,0,0,1,.8-1.607,28.071,28.071,0,0,1,2.9-1.479c0.821-.324,1.751-0.361,2.594-0.641a20.152,20.152,0,0,1,5.943-1.069c1.135-.024,2.273.075,3.41,0.112,1.566,0.05,3.141.007,4.7,0.168a27.578,27.578,0,0,1,3.754.779c1.619,0.4,3.225.859,4.834,1.3a12.957,12.957,0,0,0,1.388.423,8.292,8.292,0,0,0,2.089.245,2.712,2.712,0,0,1,2.379.859,2.4,2.4,0,0,0,.49.356Zm-7.706,7.918a5.677,5.677,0,0,0-1.063.737,9.7,9.7,0,0,0-.9,1.329,1.027,1.027,0,0,0,.361,1.62c0.531,0.309,1.124.509,1.681,0.775a8.42,8.42,0,0,0,3.691.723c1.107,0,2.216-.03,3.32-0.106,1.316-.091,2.629-0.24,3.941-0.377,0.443-.046.88-0.169,1.324-0.2a8.765,8.765,0,0,0,3.667-1.4,0.6,0.6,0,0,0,.186-0.554,2.427,2.427,0,0,0-.835-0.861c-1.118-.523-2.277-0.96-3.477-1.454l-0.227.732c-1.15-.483-2.505-0.372-3.415-1.4a0.47,0.47,0,0,0-.421.08,3.113,3.113,0,0,1-1.617,1.379,9.181,9.181,0,0,1-4.676.637,1.088,1.088,0,0,1-.658-0.421C175.387,130.363,175.112,129.917,174.834,129.522ZM165.072,128c0.391-.436.195-0.664-0.132-0.871a8.056,8.056,0,0,1-.709-0.513,3.4,3.4,0,0,1-1.561-2.889,0.557,0.557,0,0,1,.554-0.659,2.866,2.866,0,0,1,2.358.489,0.5,0.5,0,0,0,.449.087,0.812,0.812,0,0,0,.151-0.507c0-.188-0.089-0.376-0.1-0.567-0.043-.888-0.1-1.776-0.093-2.665a0.4,0.4,0,0,0-.453-0.462,11.835,11.835,0,0,0-5.623,1.49,3.954,3.954,0,0,0-2.324,4.106,5.246,5.246,0,0,0,2.392,4.038,17.392,17.392,0,0,0,2.7,1.586,41.832,41.832,0,0,0,4.215,1.151,0.418,0.418,0,0,0,.591-0.428,5.441,5.441,0,0,1,.186-1.206,0.671,0.671,0,0,0-.4-0.9C166.565,128.877,165.866,128.464,165.072,128Zm8.336-3.359c0.3,0.55.528,1.042,0.815,1.5,0.25,0.4.526,0.249,0.7-.079,0.239-.451.434-0.925,0.672-1.441a5.745,5.745,0,0,1,.639.273,18.617,18.617,0,0,0,2.168,1.241,0.7,0.7,0,0,1,.518,1c-0.107.37,0.036,0.488,0.423,0.432,1.435-.206,2.874-0.381,4.309-0.584a0.87,0.87,0,0,0,.589-0.235,0.835,0.835,0,0,0-.081-0.69,4.245,4.245,0,0,0-.939-1.1,17.532,17.532,0,0,0-5.038-2.621c-0.35-.111-0.694-0.24-1.037-0.371a6.437,6.437,0,0,0-3.528-.466,0.987,0.987,0,0,0-.67.569,16.315,16.315,0,0,0-.21,1.96C172.688,124.528,172.805,124.847,173.407,124.639Z" transform="translate(-85.293 -39.405)"/><path class="cls-5" d="M146.6,121.656a4.408,4.408,0,0,0,.975,2.969c1.048,1.087,2.195,2.081,3.331,3.078,0.52,0.456,1.156.78,1.67,1.24a16.57,16.57,0,0,0,4.412,2.455c3.129,1.429,6.3,2.774,9.477,4.09a33.061,33.061,0,0,0,3.174.95c1.135,0.34,2.286.638,3.393,1.053a14.567,14.567,0,0,0,4.2.842c2.662,0.173,5.331.331,8,.315a55.789,55.789,0,0,0,5.809-.493c2.028-.226,4.05-0.511,6.071-0.8a2.621,2.621,0,0,0,1.845-1.3,25.169,25.169,0,0,1,.733,2.422,4.588,4.588,0,0,1-.141,2.677,4.036,4.036,0,0,1-.045,1.232,12.679,12.679,0,0,1-1.128,1.889,4.061,4.061,0,0,1-1.349.759,0.374,0.374,0,0,1-.336-0.1c-0.11-.438-0.443-0.339-0.747-0.37-2.192-.22-4.333.334-6.5,0.414-1.323.049-2.649,0.065-3.974,0.054-3.03-.024-6.073.079-9.087-0.161a40.481,40.481,0,0,1-6.739-1.28,40.022,40.022,0,0,1-3.926-1.578c-1.108-.414-2.261-0.7-3.379-1.093a12.075,12.075,0,0,1-3.089-1.832c-1.175-.86-2.464-1.563-3.668-2.385-1.122-.766-2.194-1.6-3.295-2.4-0.926-.67-1.869-1.319-2.792-1.993a12.888,12.888,0,0,1-1.222-.988c-1.323-1.239-2.967-2.143-3.857-3.834a3.71,3.71,0,0,1,.259-3.922c0.485-.6,1.027-1.156,1.552-1.724A1.5,1.5,0,0,1,146.6,121.656Z" transform="translate(-85.293 -39.405)"/><path class="cls-5" d="M179.149,119.457l1.816,0.507-0.05.182-1.827-.472Z" transform="translate(-85.293 -39.405)"/><path class="cls-7" d="M100.717,218.969a0.817,0.817,0,0,0-1.235-.087,1.249,1.249,0,0,1-1.323-.108,3.553,3.553,0,0,0-1.077-.25,1.2,1.2,0,0,0-.424-1.044,4.394,4.394,0,0,1-.542-1.57c-0.17-.556-0.324-1.116-0.5-1.669a0.549,0.549,0,0,0-.237-0.3c-0.855-.418-0.9-0.64-0.535-1.633a3.8,3.8,0,0,0,.068-1.146c0.048-1.434.105-2.869,0.139-4.3a41.02,41.02,0,0,0,.03-4.25,5.372,5.372,0,0,1,.575-3.46,0.374,0.374,0,0,1,.1-0.141,8.821,8.821,0,0,1,2.379-1.17,39.88,39.88,0,0,1,4.818-.31c1.843-.07,3.691-0.184,5.53-0.107,1.14,0.048,2.234-.253,3.369-0.175a28.915,28.915,0,0,0,6.5-.62c0.59-.093,1.211.026,1.806-0.044,1.135-.134,2.257-0.383,3.394-0.492,1.1-.105,2.2-0.1,3.308-0.135l4.829-.172a1.741,1.741,0,0,1,1.533.254,0.9,0.9,0,0,0,.8-0.136,0.921,0.921,0,0,1,1.333-.081,0.892,0.892,0,0,0,.627.139,2.869,2.869,0,0,1,2.538.351,0.649,0.649,0,0,0,.617.029,1.586,1.586,0,0,1,1.389-.125,5.46,5.46,0,0,0,.925-0.035,3.319,3.319,0,0,1,1,.091,0.81,0.81,0,0,0,.834-0.08,2.512,2.512,0,0,1,1.255-.279,11.024,11.024,0,0,1,1.379.183,1.108,1.108,0,0,0,1.115-.3,0.552,0.552,0,0,1,.869.078,0.577,0.577,0,0,0,.882.071,1.492,1.492,0,0,1,1.249-.285c0.5,0.025,1.009-.008,1.51.036a7.769,7.769,0,0,1,1.229.231,1.333,1.333,0,0,0,.98-0.04,4.318,4.318,0,0,1,1.567-.339c0.769-.032,1.543.078,2.314,0.07,0.4,0,.791-0.191,1.187-0.193a7.974,7.974,0,0,0,2.137-.172,2.952,2.952,0,0,1,1,.094,2.025,2.025,0,0,0,.451.019,2.737,2.737,0,0,1,1.111-.145c0.806,0.31,1.717-.076,2.473.439a0.447,0.447,0,0,0,.379.059,2.051,2.051,0,0,1,2.1.072,3.944,3.944,0,0,0,1.053-.03,17.489,17.489,0,0,0,5.046.016,2.284,2.284,0,0,1,.763.159,0.673,0.673,0,0,0,.277.034,15.6,15.6,0,0,1,4.7-.124c0.7,0.043,1.4-.03,2.1-0.04,0.25,0,.5.033,0.75,0.032,2.3-.007,4.6-0.011,6.906-0.03,1.494-.012,2.987-0.036,4.48-0.081,0.461-.014.919-0.145,1.381-0.166a2.812,2.812,0,0,1,.731.157,0.485,0.485,0,0,0,.21.055,1.451,1.451,0,0,1,1.771.126c1.069,0.541,2.265.3,3.345,0.678a8.609,8.609,0,0,1,1.5.622,3.46,3.46,0,0,1,.691.858,1.372,1.372,0,0,1,.99,1.333,29.143,29.143,0,0,1,.334,3.48c-0.01.955,0.119,2.017-.719,2.793a0.4,0.4,0,0,0-.122.306c0.558,0.652.048,1.369,0.144,2.044,0.124,0.876.313,1.749,0.359,2.629a10.956,10.956,0,0,1-.181,2,5.107,5.107,0,0,1-.259,1,2.289,2.289,0,0,1-.476.677,1.258,1.258,0,0,1-1.355.424,0.079,0.079,0,0,0-.054.021c-0.613.526-1.244,0.9-1.927,0.2a0.665,0.665,0,0,0-.174.122c-0.3.773-.208,1.059-1.4,0.536-0.48-.211-0.967-0.563-1.446.1a1.47,1.47,0,0,1-.893-0.137,1.711,1.711,0,0,0-.557-0.252,6.805,6.805,0,0,1-.962.239,16.4,16.4,0,0,1-2.024.125c-1.033-.02-1.947.652-3.04,0.416a11.77,11.77,0,0,0-1.391.386,4.986,4.986,0,0,0-1.854.309,4.463,4.463,0,0,1-1.028.162,0.767,0.767,0,0,1-.9-0.2,0.487,0.487,0,0,0-.389-0.038c-0.259.612-.827,0.379-1.251,0.431a13.257,13.257,0,0,1-1.445-.069,12.405,12.405,0,0,1-1.439.108,27.075,27.075,0,0,0-3.537.187c-0.922.018-1.849-.091-2.767-0.041-1.043.057-2.079,0.242-3.12,0.344-1.233.122-2.469,0.214-3.7,0.321-0.5.044-1.007,0.115-1.512,0.131-0.414.014-.83-0.038-1.245-0.055a0.985,0.985,0,0,0-.5.014c-1.669,1.09-3.52.864-5.362,0.8-1.7-.057-3.394-0.077-5.091-0.044-2.59.051-5.178,0.168-7.768,0.239a12.067,12.067,0,0,1-1.232-.107,0.387,0.387,0,0,0-.263.053,1.346,1.346,0,0,1-1.523.117,0.807,0.807,0,0,0-1.031.125,1.479,1.479,0,0,1-1.205.2,2.628,2.628,0,0,0-1.075.049,6.879,6.879,0,0,1-1.516-.148,0.815,0.815,0,0,0-.438-0.033c-0.889.731-1.931,0.334-2.9,0.415a11.084,11.084,0,0,1-1.194.01c-1.245-.031-2.5.011-3.732-0.136a25.353,25.353,0,0,0-2.662.056c-1.648-.027-3.3.124-4.946,0.065-1.785-.065-3.563-0.3-5.347-0.433q-2.641-.2-5.285-0.344c-2.636-.141-5.274-0.258-7.911-0.38a4.418,4.418,0,0,0-.513.058,3.508,3.508,0,0,1-1.312.055A1.054,1.054,0,0,0,100.717,218.969Zm48.007-7.649-0.034-.191c-0.193-.152-0.388-0.3-0.58-0.457a2.291,2.291,0,0,1-.629-2.6,1.2,1.2,0,0,0-.351-1.166,2.76,2.76,0,0,1-.6-2.858,1.178,1.178,0,0,0-.119-0.522,1.127,1.127,0,0,0-.41.347,3.5,3.5,0,0,0,.635,3.173,1.339,1.339,0,0,1,.3,1.174,4.6,4.6,0,0,0-.089,1.375c0.078,0.836.877,1.193,1.322,1.788A1.189,1.189,0,0,0,148.724,211.32Zm48.524-5.458,0.163,0.044a1.589,1.589,0,0,0,.289-0.634c-0.091-1.231-.116-2.5-1.22-3.371a1.081,1.081,0,0,1-.392-1.2c0.147-.563.035-0.741-0.543-0.8a2.585,2.585,0,0,0-.807.067,0.836,0.836,0,0,0-.279.289,0.975,0.975,0,0,0,.352.206,6.207,6.207,0,0,0,.826-0.049,2.308,2.308,0,0,0,.8,2.267,2.334,2.334,0,0,1,.5,1.137C197.089,204.49,197.15,205.18,197.248,205.862Zm-21.184-.258a11.054,11.054,0,0,0-.159-1.674,2.327,2.327,0,0,0-.589-1.117,2.247,2.247,0,0,1-.8-1.36,4.058,4.058,0,0,0-.137-0.623,0.863,0.863,0,0,0-.968-0.577,0.354,0.354,0,0,0-.267.172,0.4,0.4,0,0,0,.052.31c0.847,0.116.646,0.892,0.9,1.383a2.272,2.272,0,0,0,.629.921,1.241,1.241,0,0,1,.612.986c0.064,0.482.074,0.97,0.142,1.451a1.575,1.575,0,0,0,.236.456Zm-48.429,9.283,0.013-.18a2.371,2.371,0,0,1-.654-0.323,3.039,3.039,0,0,1-.807-1c-0.253-.686-0.332-1.435-0.539-2.141-0.231-.787-0.679-1.54-0.227-2.389a0.753,0.753,0,0,0-.112-0.251,1.556,1.556,0,0,0-.416.559,4.648,4.648,0,0,0,.086,1.373c0.214,0.88.6,1.727,0.737,2.615a2.806,2.806,0,0,0,1.28,1.718A1.249,1.249,0,0,0,127.635,214.887ZM105.3,209.125c-0.193-.526-0.371-1.031-0.565-1.529a0.492,0.492,0,0,0-.212-0.26c-0.408-.183-0.284-0.448-0.2-0.774a1.517,1.517,0,0,0,.041-1.05,1.339,1.339,0,0,1-.015-1.551,1.147,1.147,0,0,0-.025-0.481,0.943,0.943,0,0,0-.332.317,2.211,2.211,0,0,0,.048,1.913,0.414,0.414,0,0,1,.023.379,1.4,1.4,0,0,0,.086,1.534A2.524,2.524,0,0,0,105.3,209.125Z" transform="translate(-85.293 -39.405)"/><path class="cls-7" d="M94.91,205.072l-0.125,1.974A1.887,1.887,0,0,1,94.2,205.4a1.661,1.661,0,0,1,.523-0.445Z" transform="translate(-85.293 -39.405)"/><path class="cls-7" d="M95.919,216.158a0.874,0.874,0,0,1-.915-0.81,2.166,2.166,0,0,1,.147-0.771l0.237,0.019Z" transform="translate(-85.293 -39.405)"/><path class="cls-7" d="M170.613,218.134l1.366-.174,0.09,0.169a2.275,2.275,0,0,1-.748.468,1.93,1.93,0,0,1-.789-0.255Z" transform="translate(-85.293 -39.405)"/><path class="cls-7" d="M122.122,195.774l-1.577.26A0.926,0.926,0,0,1,122.122,195.774Z" transform="translate(-85.293 -39.405)"/><path class="cls-7" d="M156.924,219.184l1.377,0.134a1.586,1.586,0,0,1-.544.453,4.681,4.681,0,0,1-.91-0.354Z" transform="translate(-85.293 -39.405)"/><path class="cls-7" d="M151.447,219.268h1.105C152.291,219.949,152.082,219.953,151.447,219.268Z" transform="translate(-85.293 -39.405)"/><path class="cls-7" d="M94.651,208.057v1.419A0.876,0.876,0,0,1,94.651,208.057Z" transform="translate(-85.293 -39.405)"/><path class="cls-7" d="M184.684,195.341l-1.4-.092A0.885,0.885,0,0,1,184.684,195.341Z" transform="translate(-85.293 -39.405)"/><path class="cls-7" d="M193.32,194.646c-0.428.51-.463,0.5-1.173-0.248Z" transform="translate(-85.293 -39.405)"/><path class="cls-7" d="M94.648,201.826l-0.367-.565,0.353-.214L94.9,201.7Z" transform="translate(-85.293 -39.405)"/><path class="cls-7" d="M105.448,197c0.369-.51.631-0.523,1.127-0.091Z" transform="translate(-85.293 -39.405)"/><path class="cls-3" d="M166.038,99.236c-1.242,0-2.486-.049-3.725.014-1.259.064-2.512,0.236-3.767,0.367-1.721.18-3.439,0.4-5.163,0.543-1.824.153-3.654,0.225-5.48,0.36-2.639.2-5.274,0.464-7.915,0.613-1.937.109-3.882,0.123-5.822,0.094-2.428-.036-4.864-0.06-7.28-0.275-2.063-.184-4.1-0.642-6.153-0.957-1.343-.207-2.694-0.367-4.039-0.564-1.288-.189-2.573-0.407-3.861-0.6-1.269-.188-2.542-0.344-3.809-0.539-0.612-.095-1.219-0.235-1.822-0.379-3.854-.917-7.728-1.76-11.55-2.794a23.765,23.765,0,0,1-6.32-2.817q-1.458-.907-2.909-1.825a1.082,1.082,0,0,1-.519-1.309c0.4-2.115.614-4.263,1.011-6.378a35.13,35.13,0,0,1,1.032-3.7,46.014,46.014,0,0,1,2.963-7.333,22.72,22.72,0,0,1,3.361-5.1c0.5-.557.867-1.237,1.346-1.819,0.69-.839,1.429-1.638,2.143-2.456,0.537-.615,1.046-1.258,1.611-1.846a17.349,17.349,0,0,1,1.473-1.325c2.191-1.813,4.337-3.688,6.608-5.4a49.978,49.978,0,0,1,4.85-3.039c1.815-1.062,3.627-2.144,5.523-3.045a29.855,29.855,0,0,1,4.758-1.745q4.075-1.141,8.218-2.036c3.082-.662,6.186-1.223,9.292-1.764,2.667-.464,5.343-0.884,8.027-1.237a69.4,69.4,0,0,1,7.327-.739c3.286-.08,6.582.034,9.866,0.21a48.289,48.289,0,0,1,9.255,1.179c0.772,0.195,1.52.483,2.287,0.7,2.021,0.569,4.061,1.076,6.065,1.7a22.528,22.528,0,0,1,3.461,1.39c1.962,0.991,3.921,2.007,5.785,3.169a36.517,36.517,0,0,1,3.688,2.862c1.655,1.355,3.354,2.669,4.9,4.14a21.651,21.651,0,0,1,3.884,4.941c0.626,1.093,1.42,2.1,1.979,3.22,0.9,1.807,1.669,3.68,2.5,5.524,0.518,1.154,1.1,2.281,1.55,3.462,0.863,2.291,1.658,4.608,2.454,6.924a4.441,4.441,0,0,1,.157,1.2,0.508,0.508,0,0,1-.251.295,61.22,61.22,0,0,1-9.988,5.527c-2.614,1.089-5.125,2.424-7.7,3.6-1.68.766-3.39,1.467-5.1,2.153-2.391.957-4.777,1.933-7.2,2.79-2.1.742-4.243,1.385-6.394,1.97-1.883.512-3.8,0.905-5.71,1.311-1.289.274-2.59,0.489-3.89,0.705a6.113,6.113,0,0,1-.99.008v0.041ZM164.7,49.423a1.25,1.25,0,0,0,1.106-.889,4.526,4.526,0,0,0,.128-2.889,0.442,0.442,0,0,0-.234-0.273,2.4,2.4,0,0,0-1.093.495,4.083,4.083,0,0,0-.854,2.653A0.8,0.8,0,0,0,164.7,49.423Zm-29.709,9.956a0.969,0.969,0,0,0,.22.409,2.046,2.046,0,0,0,1.118-.3,3.709,3.709,0,0,0,1.308-2.454,1.043,1.043,0,0,0-.29-0.838,1.43,1.43,0,0,0-1.023-.086,1.662,1.662,0,0,0-.684.6A4.254,4.254,0,0,0,134.994,59.379Zm35.574-9.831,0.046,0.1a15.333,15.333,0,0,0,2.061-.831,1.338,1.338,0,0,0,.45-0.972c0.025-.393-0.388-0.449-0.721-0.515a4.727,4.727,0,0,0-2.758.876c-0.026.028-.053,0.057-0.078,0.087a0.632,0.632,0,0,0,.267,1.1A4.958,4.958,0,0,0,170.568,49.548Zm-39.791,6.958L130.8,56.6a2.05,2.05,0,0,0,.719-0.174,1.471,1.471,0,0,0,.7-0.762,1.161,1.161,0,0,0-.691-0.727,3.039,3.039,0,0,0-2.625.166,1.209,1.209,0,0,0-.527.871,0.975,0.975,0,0,0,.626.607,3.636,3.636,0,0,0,1.175.068A2.932,2.932,0,0,0,130.776,56.506ZM171.6,55.4a1.4,1.4,0,0,0-.709-1.352c-0.267-.1-0.555-0.163-0.812-0.287-0.414-.2-0.548.016-0.543,0.363a12.462,12.462,0,0,0,.11,1.412,1.255,1.255,0,0,0,1.337.848A0.744,0.744,0,0,0,171.6,55.4Zm-40.4-6.046a2.063,2.063,0,0,0,1.515,1.479,0.335,0.335,0,0,0,.262-0.174,7.3,7.3,0,0,0,.176-1.812,1.632,1.632,0,0,0-.783-0.739,0.649,0.649,0,0,0-1.061.421A7.9,7.9,0,0,0,131.2,49.356Z" transform="translate(-85.293 -39.405)"/><path class="cls-8" d="M138.939,129.711l-2.038,1.636a0.45,0.45,0,0,1-.138-0.073,1.108,1.108,0,0,0-.878-1.062,6.129,6.129,0,0,0-3.039-.585,12.047,12.047,0,0,1-3.483-.216,4.258,4.258,0,0,0-2.684.518c-0.579.262-.882,0.222-1.057-0.405a1.712,1.712,0,0,0-.3-0.4l-0.288.7a10.59,10.59,0,0,1-.8-0.765,0.516,0.516,0,0,1,.2-0.381,5.946,5.946,0,0,1,1.509-.609,21.415,21.415,0,0,1,6.961-.19,20.023,20.023,0,0,1,5.432,1.544C138.508,129.5,138.673,129.581,138.939,129.711Z" transform="translate(-85.293 -39.405)"/><path class="cls-8" d="M137.648,134.846a13.417,13.417,0,0,1-7.94,2.092c-1.177-.055-2.352-0.2-3.521-0.359-0.8-.11-0.955-0.5-0.6-1.226,0.205-.418.406-0.839,0.586-1.268a0.512,0.512,0,0,1,.672-0.375c1.31,0.346,2.637.639,3.93,1.039a3.478,3.478,0,0,0,3.528-.365,0.6,0.6,0,0,1,.423-0.112c0.879,0.138,1.754.3,2.63,0.456A1.933,1.933,0,0,1,137.648,134.846Z" transform="translate(-85.293 -39.405)"/><path class="cls-8" d="M117.625,130.9c-0.547-.068-0.965-0.139-1.386-0.168-0.6-.041-0.691.092-0.539,0.665a3.287,3.287,0,0,1,.135.859,0.827,0.827,0,0,0,.877.928c0.379,0.037.892-.093,0.868,0.581a0.436,0.436,0,0,0,.283.138c0.541,0.057,1.083.093,1.625,0.142a1.843,1.843,0,0,1,.7.174c-1.271.4-2.529,0.979-3.877,0.669a16.443,16.443,0,0,1-3.06-1.08A3.736,3.736,0,0,1,112,132.723a1.183,1.183,0,0,1,.27-1.858,9.794,9.794,0,0,1,4.221-1.831,0.564,0.564,0,0,1,.493.225C117.22,129.746,117.386,130.265,117.625,130.9Z" transform="translate(-85.293 -39.405)"/><path d="M174.834,129.522c0.278,0.4.552,0.841,0.885,1.237a1.088,1.088,0,0,0,.658.421,9.181,9.181,0,0,0,4.676-.637,3.113,3.113,0,0,0,1.617-1.379,0.47,0.47,0,0,1,.421-0.08c0.91,1.031,2.265.92,3.415,1.4l0.227-.732c1.2,0.494,2.359.931,3.477,1.454a2.427,2.427,0,0,1,.835.861,0.6,0.6,0,0,1-.186.554,8.765,8.765,0,0,1-3.667,1.4c-0.444.029-.881,0.151-1.324,0.2-1.313.137-2.625,0.286-3.941,0.377-1.1.076-2.213,0.107-3.32,0.106a8.42,8.42,0,0,1-3.691-.723c-0.557-.266-1.15-0.466-1.681-0.775a1.027,1.027,0,0,1-.361-1.62,9.7,9.7,0,0,1,.9-1.329A5.677,5.677,0,0,1,174.834,129.522Zm15.5,2.6a7.173,7.173,0,0,0-.706-0.417c-0.428-.187-0.866-0.353-1.3-0.513a1.248,1.248,0,0,0-1.448-.07,0.357,0.357,0,0,1-.281.018c-1.042-.306-2.094-0.588-3.115-0.955a0.592,0.592,0,0,0-.717.071,6.212,6.212,0,0,1-3.893,1.633c-0.659.044-1.319,0.058-1.979,0.086a2,2,0,0,1-1.993-1.149,4.77,4.77,0,0,0-.33-0.419c-0.28.373-.505,0.71-0.767,1.015-0.657.767-.652,0.964,0.27,1.42a7.514,7.514,0,0,0,2.112.794,27.3,27.3,0,0,0,3.761.264c1.473,0.018,2.949-.036,4.42-0.123,0.673-.04,1.332-0.274,2-0.353A8.479,8.479,0,0,0,190.338,132.123Z" transform="translate(-85.293 -39.405)"/><path d="M165.072,128c0.795,0.466,1.494.879,2.2,1.286a0.671,0.671,0,0,1,.4.9,5.441,5.441,0,0,0-.186,1.206,0.418,0.418,0,0,1-.591.428,41.832,41.832,0,0,1-4.215-1.151,17.392,17.392,0,0,1-2.7-1.586,5.246,5.246,0,0,1-2.392-4.038,3.954,3.954,0,0,1,2.324-4.106,11.835,11.835,0,0,1,5.623-1.49,0.4,0.4,0,0,1,.453.462c0,0.888.05,1.777,0.093,2.665,0.009,0.19.1,0.379,0.1,0.567a0.812,0.812,0,0,1-.151.507,0.5,0.5,0,0,1-.449-0.087,2.866,2.866,0,0,0-2.358-.489,0.557,0.557,0,0,0-.554.659,3.4,3.4,0,0,0,1.561,2.889,8.056,8.056,0,0,0,.709.513C165.266,127.334,165.463,127.562,165.072,128Zm0.334-5.56c0-.533-0.031-1.135.01-1.732,0.031-.44-0.135-0.556-0.534-0.505a11.335,11.335,0,0,0-5,1.741,3.333,3.333,0,0,0-1.544,1.978,4.183,4.183,0,0,0,.794,3.24,3.024,3.024,0,0,0,.638.775c0.365,0.285,1.169.02,1.08,0.881a0.32,0.32,0,0,0,.13.108,12.167,12.167,0,0,0,5.451,2.048,0.5,0.5,0,0,0,.405-0.135,0.8,0.8,0,0,0-.339-1.287c-0.213-.095-0.441-0.155-0.658-0.242a1.229,1.229,0,0,1-.95-1.4c-0.3-.235-0.62-0.463-0.917-0.712a4.079,4.079,0,0,1-1.868-3.267c0.02-1.122.243-1.447,1.381-1.484C164.1,122.422,164.725,122.438,165.405,122.438Z" transform="translate(-85.293 -39.405)"/><path d="M173.407,124.639c-0.6.209-.719-0.11-0.668-0.618a16.315,16.315,0,0,1,.21-1.96,0.987,0.987,0,0,1,.67-0.569,6.437,6.437,0,0,1,3.528.466c0.343,0.131.687,0.26,1.037,0.371a17.532,17.532,0,0,1,5.038,2.621,4.245,4.245,0,0,1,.939,1.1,0.835,0.835,0,0,1,.081.69,0.87,0.87,0,0,1-.589.235c-1.435.2-2.875,0.378-4.309,0.584-0.387.056-.53-0.063-0.423-0.432a0.7,0.7,0,0,0-.518-1,18.617,18.617,0,0,1-2.168-1.241,5.745,5.745,0,0,0-.639-0.273c-0.238.516-.433,0.99-0.672,1.441-0.174.328-.45,0.479-0.7,0.079C173.936,125.68,173.7,125.189,173.407,124.639Zm1.093,0.686a6.257,6.257,0,0,0,.383-1.006c0.144-.773.283-0.865,0.915-0.5,0.939,0.547,1.892,1.071,2.81,1.651a15.133,15.133,0,0,1,1.37,1.118l3.437-.378a2.376,2.376,0,0,0-.4-0.567,15.434,15.434,0,0,0-2.038-1.341c-1.162-.571-2.373-1.046-3.577-1.528a6.439,6.439,0,0,0-3.228-.614,0.978,0.978,0,0,0-.738,1.414C173.743,124.112,174.077,124.634,174.5,125.325Z" transform="translate(-85.293 -39.405)"/><path d="M148.724,211.32a1.189,1.189,0,0,1-.556.059c-0.445-.6-1.244-0.953-1.322-1.788a4.6,4.6,0,0,1,.089-1.375,1.339,1.339,0,0,0-.3-1.174A3.5,3.5,0,0,1,146,203.87a1.127,1.127,0,0,1,.41-0.347,1.178,1.178,0,0,1,.119.522,2.76,2.76,0,0,0,.6,2.858,1.2,1.2,0,0,1,.351,1.166,2.291,2.291,0,0,0,.629,2.6c0.192,0.154.386,0.3,0.58,0.457Z" transform="translate(-85.293 -39.405)"/><path d="M197.248,205.862c-0.1-.682-0.159-1.372-0.309-2.043a2.334,2.334,0,0,0-.5-1.137,2.308,2.308,0,0,1-.8-2.267,6.207,6.207,0,0,1-.826.049,0.975,0.975,0,0,1-.352-0.206,0.836,0.836,0,0,1,.279-0.289,2.585,2.585,0,0,1,.807-0.067c0.579,0.056.69,0.234,0.543,0.8a1.081,1.081,0,0,0,.392,1.2c1.1,0.874,1.129,2.14,1.22,3.371a1.589,1.589,0,0,1-.289.634Z" transform="translate(-85.293 -39.405)"/><path d="M176.064,205.6l-0.355.329a1.575,1.575,0,0,1-.236-0.456c-0.068-.481-0.078-0.969-0.142-1.451a1.241,1.241,0,0,0-.612-0.986,2.272,2.272,0,0,1-.629-0.921c-0.252-.491-0.051-1.267-0.9-1.383a0.4,0.4,0,0,1-.052-0.31,0.354,0.354,0,0,1,.267-0.172,0.863,0.863,0,0,1,.968.577,4.058,4.058,0,0,1,.137.623,2.247,2.247,0,0,0,.8,1.36,2.327,2.327,0,0,1,.589,1.117A11.054,11.054,0,0,1,176.064,205.6Z" transform="translate(-85.293 -39.405)"/><path d="M127.635,214.887a1.249,1.249,0,0,1-.639-0.016,2.806,2.806,0,0,1-1.28-1.718c-0.134-.888-0.522-1.735-0.737-2.615a4.648,4.648,0,0,1-.086-1.373,1.556,1.556,0,0,1,.416-0.559,0.753,0.753,0,0,1,.112.251c-0.451.85,0,1.6,0.227,2.389,0.207,0.706.286,1.455,0.539,2.141a3.039,3.039,0,0,0,.807,1,2.371,2.371,0,0,0,.654.323Z" transform="translate(-85.293 -39.405)"/><path d="M105.3,209.125a2.524,2.524,0,0,1-1.152-1.5,1.4,1.4,0,0,1-.086-1.534,0.414,0.414,0,0,0-.023-0.379,2.211,2.211,0,0,1-.048-1.913,0.943,0.943,0,0,1,.332-0.317,1.147,1.147,0,0,1,.025.481,1.339,1.339,0,0,0,.015,1.551,1.517,1.517,0,0,1-.041,1.05c-0.083.326-.207,0.591,0.2,0.774a0.492,0.492,0,0,1,.212.26C104.924,208.094,105.1,208.6,105.3,209.125Z" transform="translate(-85.293 -39.405)"/><path d="M164.7,49.423a0.8,0.8,0,0,1-.947-0.9,4.083,4.083,0,0,1,.854-2.653,2.4,2.4,0,0,1,1.093-.495,0.442,0.442,0,0,1,.234.273,4.526,4.526,0,0,1-.128,2.889A1.25,1.25,0,0,1,164.7,49.423Zm0.554-3.118a2.917,2.917,0,0,0-.834,2.165,0.356,0.356,0,0,0,.21.276,0.473,0.473,0,0,0,.391-0.124A2.692,2.692,0,0,0,165.257,46.3Z" transform="translate(-85.293 -39.405)"/><path d="M134.994,59.379a4.254,4.254,0,0,1,.649-2.674,1.662,1.662,0,0,1,.684-0.6,1.43,1.43,0,0,1,1.023.086,1.043,1.043,0,0,1,.29.838,3.709,3.709,0,0,1-1.308,2.454,2.046,2.046,0,0,1-1.118.3A0.969,0.969,0,0,1,134.994,59.379ZM135.782,59a3.193,3.193,0,0,0,1.234-2,0.389,0.389,0,0,0-.139-0.322,0.5,0.5,0,0,0-.416.01A2.687,2.687,0,0,0,135.782,59Z" transform="translate(-85.293 -39.405)"/><path d="M170.568,49.548a4.958,4.958,0,0,1-.734-0.157,0.632,0.632,0,0,1-.267-1.1c0.025-.03.052-0.058,0.078-0.087a4.727,4.727,0,0,1,2.758-.876c0.334,0.066.746,0.122,0.721,0.515a1.338,1.338,0,0,1-.45.972,15.333,15.333,0,0,1-2.061.831ZM172.5,48.08a2.235,2.235,0,0,0-2.315.678A2.207,2.207,0,0,0,172.5,48.08Z" transform="translate(-85.293 -39.405)"/><path d="M130.776,56.506a2.932,2.932,0,0,1-.605.143A3.636,3.636,0,0,1,129,56.581a0.975,0.975,0,0,1-.626-0.607A1.209,1.209,0,0,1,128.9,55.1a3.039,3.039,0,0,1,2.625-.166,1.161,1.161,0,0,1,.691.727,1.471,1.471,0,0,1-.7.762,2.05,2.05,0,0,1-.719.174Zm0.754-.834c-0.912-.509-2.33-0.326-2.525.277A3.337,3.337,0,0,0,131.53,55.672Z" transform="translate(-85.293 -39.405)"/><path d="M171.6,55.4a0.744,0.744,0,0,1-.617.984,1.255,1.255,0,0,1-1.337-.848,12.462,12.462,0,0,1-.11-1.412c0-.347.129-0.562,0.543-0.363,0.257,0.124.545,0.182,0.812,0.287A1.4,1.4,0,0,1,171.6,55.4Zm-1.484-.77c0.051,0.564.116,1.073,0.835,1.032A0.732,0.732,0,0,0,170.113,54.632Z" transform="translate(-85.293 -39.405)"/><path d="M131.2,49.356a7.9,7.9,0,0,1,.11-0.825,0.649,0.649,0,0,1,1.061-.421,1.632,1.632,0,0,1,.783.739,7.3,7.3,0,0,1-.176,1.812,0.335,0.335,0,0,1-.262.174A2.063,2.063,0,0,1,131.2,49.356Zm0.763-.668a0.719,0.719,0,0,0,.594,1.168C132.666,48.984,132.621,48.9,131.961,48.688Z" transform="translate(-85.293 -39.405)"/><path class="cls-8" d="M190.338,132.123a8.479,8.479,0,0,1-3.968,1.3c-0.673.079-1.332,0.313-2,.353-1.471.088-2.947,0.142-4.42,0.123a27.3,27.3,0,0,1-3.761-.264,7.514,7.514,0,0,1-2.112-.794c-0.921-.455-0.927-0.652-0.27-1.42,0.261-.305.487-0.642,0.767-1.015a4.77,4.77,0,0,1,.33.419,2,2,0,0,0,1.993,1.149c0.66-.029,1.32-0.042,1.979-0.086a6.212,6.212,0,0,0,3.893-1.633,0.592,0.592,0,0,1,.717-0.071c1.021,0.366,2.073.648,3.115,0.955a0.357,0.357,0,0,0,.281-0.018,1.248,1.248,0,0,1,1.448.07c0.439,0.161.876,0.327,1.3,0.513A7.173,7.173,0,0,1,190.338,132.123Z" transform="translate(-85.293 -39.405)"/><path class="cls-8" d="M165.405,122.438c-0.68,0-1.3-.016-1.921,0-1.138.037-1.361,0.362-1.381,1.484a4.079,4.079,0,0,0,1.868,3.267c0.3,0.249.613,0.477,0.917,0.712a1.229,1.229,0,0,0,.95,1.4c0.217,0.087.445,0.147,0.658,0.242a0.8,0.8,0,0,1,.339,1.287,0.5,0.5,0,0,1-.405.135,12.167,12.167,0,0,1-5.451-2.048,0.32,0.32,0,0,1-.13-0.108c0.09-.861-0.714-0.6-1.08-0.881a3.024,3.024,0,0,1-.638-0.775,4.183,4.183,0,0,1-.794-3.24,3.333,3.333,0,0,1,1.544-1.978,11.335,11.335,0,0,1,5-1.741c0.4-.051.565,0.065,0.534,0.505C165.374,121.3,165.405,121.905,165.405,122.438Z" transform="translate(-85.293 -39.405)"/><path class="cls-8" d="M174.5,125.325c-0.424-.691-0.757-1.212-1.068-1.747a0.978,0.978,0,0,1,.738-1.414,6.439,6.439,0,0,1,3.228.614c1.2,0.482,2.415.957,3.577,1.528a15.434,15.434,0,0,1,2.038,1.341,2.376,2.376,0,0,1,.4.567l-3.437.378a15.133,15.133,0,0,0-1.37-1.118c-0.918-.58-1.871-1.1-2.81-1.651-0.633-.368-0.771-0.276-0.915.5A6.257,6.257,0,0,1,174.5,125.325Z" transform="translate(-85.293 -39.405)"/><path class="cls-9" d="M165.257,46.3a2.692,2.692,0,0,1-.233,2.317,0.473,0.473,0,0,1-.391.124,0.356,0.356,0,0,1-.21-0.276A2.917,2.917,0,0,1,165.257,46.3Z" transform="translate(-85.293 -39.405)"/><path class="cls-9" d="M135.782,59a2.687,2.687,0,0,1,.679-2.312,0.5,0.5,0,0,1,.416-0.01,0.389,0.389,0,0,1,.139.322A3.193,3.193,0,0,1,135.782,59Z" transform="translate(-85.293 -39.405)"/><path class="cls-9" d="M172.5,48.08a2.207,2.207,0,0,1-2.315.678A2.235,2.235,0,0,1,172.5,48.08Z" transform="translate(-85.293 -39.405)"/><path class="cls-9" d="M131.53,55.672a3.337,3.337,0,0,1-2.525.277C129.2,55.346,130.618,55.163,131.53,55.672Z" transform="translate(-85.293 -39.405)"/><path class="cls-9" d="M170.113,54.632a0.732,0.732,0,0,1,.835,1.032C170.228,55.7,170.164,55.2,170.113,54.632Z" transform="translate(-85.293 -39.405)"/><path class="cls-9" d="M131.961,48.688c0.66,0.207.7,0.3,0.594,1.168A0.719,0.719,0,0,1,131.961,48.688Z" transform="translate(-85.293 -39.405)"/></g></g></g></svg>