<?xml version="1.0" standalone="no"?>
<!DOCTYPE svg PUBLIC "-//W3C//DTD SVG 20010904//EN"
 "http://www.w3.org/TR/2001/REC-SVG-20010904/DTD/svg10.dtd">
<svg version="1.0" xmlns="http://www.w3.org/2000/svg"
 width="16.000000pt" height="16.000000pt" viewBox="0 0 16.000000 16.000000"
 preserveAspectRatio="xMidYMid meet">
<metadata>
Created by potrace 1.11, written by Peter Selinger 2001-2013
</metadata>
<g transform="translate(0.000000,16.000000) scale(0.007692,-0.007692)"
fill="#000000" stroke="none">
<path d="M0 1745 c0 -131 2 -145 18 -146 9 0 477 -1 1039 -2 l1023 -2 0 148 0
147 -1040 0 -1040 0 0 -145z"/>
<path d="M4 1471 c-2 -2 -4 -41 -4 -85 l0 -81 1040 0 1041 0 -3 85 -3 85
-1033 0 c-569 0 -1035 -2 -1038 -4z"/>
<path d="M3 1175 c-2 -6 -2 -73 -1 -149 l3 -138 1020 0 c561 1 1028 1 1038 1
15 1 17 15 17 146 0 109 -3 145 -12 146 -7 0 -474 1 -1037 2 -706 1 -1025 -1
-1028 -8z"/>
<path d="M2 680 l3 -85 1038 0 1037 0 0 85 0 85 -1040 0 -1041 0 3 -85z"/>
<path d="M183 472 l-183 -2 0 -145 0 -145 1040 0 1041 0 -3 146 -3 146 -855 1
c-470 1 -937 1 -1037 -1z"/>
</g>
</svg>
